<svg width="128pt" height="128pt" version="1.1" viewBox="0 0 128 128" xmlns="http://www.w3.org/2000/svg">
 <path d="m98.848 23.773v-14.121c0-0.70703-0.57031-1.2812-1.2812-1.2812h-62.605c-0.70703 0-1.2812 0.57422-1.2812 1.2812v22.594s-21.605 11.191-21.664 11.238c-0.65625 0.47266-3.9531 3.1758-4.832 10.32-0.42188 3.4492-0.20312 6.6133-0.015625 7.8828 0.13281 0.87891 0 3.2422 18.832 25.258 0.73047 0.96094 2.2148 1.6953 3.4023 1.6953 1.0547 0 4.2812-1.9961 4.2812-1.9961v31.703c0 0.70703 0.57031 1.2812 1.2812 1.2812h62.605c0.70703 0 1.2812-0.57422 1.2812-1.2812l-0.003906-23.867c12.23-0.51562 21.984-8.2852 21.984-17.797v-38.41c0-7.8828-9.5625-14.098-21.984-14.5zm17.504 14.5c0 5.4531-8.6016 10.059-18.785 10.059-10.18 0-18.785-4.6055-18.785-10.059 0-5.2227 7.8945-9.6562 17.504-10.023v8.6562c0 0.70703 0.57031 1.2812 1.2812 1.2812 0.70703 0 1.2812-0.57422 1.2812-1.2812l-0.003906-8.6562c9.6133 0.36719 17.508 4.8008 17.508 10.023zm0 24.578c-2.5625 5.0039-10.012 8.6367-18.785 8.6367-8.7734 0-16.219-3.6328-18.785-8.6367v-7.1758c3.9648 4.0156 10.895 6.6914 18.785 6.6914 7.8867 0 14.82-2.6758 18.785-6.6914zm-37.57 4.2422c3.9648 4.1719 10.895 6.9531 18.785 6.9531 7.8867 0 14.82-2.7812 18.785-6.9531v5.7539c-2.5625 5.3047-10.012 9.1523-18.785 9.1523-8.7734 0-16.219-3.8477-18.785-9.1523zm18.785-7.2891c-8.7734 0-16.219-3.4648-18.785-8.2422v-4.6367c4.1953 3.5859 10.973 5.8867 18.785 5.8867s14.586-2.3008 18.785-5.8867v4.6367c-2.5664 4.7773-10.012 8.2422-18.785 8.2422zm-62.605-7.3672c0.70703 0 1.2812-0.57422 1.2812-1.2812v-15.191s5.7969-3.1758 5.8906-3.1406c5.1133 5.6602 12.684 14.082 15.34 17.172 0 0-28.594 16.492-28.727 16.309 0 0-15.004-18.094-15.066-18.348 0.24609-0.30469 20-10.668 20-10.668v13.867c0 0.70703 0.57422 1.2812 1.2812 1.2812zm-6.3047 23.16c0.023438-0.42969 0.058594-0.84766 0.10547-1.2539l26.59-15.145c-0.066406 0.4375-0.11328 0.85938-0.13672 1.2734zm27.016-10.582-26.664 15.188c-0.085937-0.40234-0.15625-0.82031-0.21484-1.2539l26.617-15.16c0.074219 0.42188 0.16016 0.83594 0.26172 1.2266zm-0.09375-7.043-26.645 15.172c0.078125-0.45703 0.16406-0.88672 0.25781-1.2891l26.703-15.207c-0.12109 0.44141-0.22266 0.88281-0.31641 1.3242zm-26.34 23.203 26.711-15.215c0.12891 0.40234 0.26953 0.77734 0.41406 1.1289l-26.777 15.25c-0.12109-0.35938-0.23828-0.74609-0.34766-1.1641zm26.027-18.414-26.586 15.141c-0.03125-0.38672-0.050782-0.78125-0.050782-1.1836l26.559-15.125c0.011719 0.40234 0.035156 0.78906 0.078125 1.168zm1.0078-7.4336-26.734 15.227c0.21875-0.72656 0.42969-1.2969 0.58203-1.6719 0.64453-0.1875 1.2227-0.46875 1.582-0.65625l25.059-14.398c-0.16406 0.48438-0.33203 0.98438-0.48828 1.5zm-44.629 6.0859c-0.011719-0.28906-0.62109-2.9727-0.011719-7.0586 0.23828-1.582 0.53125-2.832 0.90234-3.8398l14.172 17.344c0.23828 0.33594 0.5 0.5625 0.77344 0.75-0.58594 1.6094-1.4141 4.5-1.4141 8.0469 0 1.418 0.16016 2.7344 0.39453 3.9141-7.1328-8.4922-13.98-17.156-14.816-19.156zm18.418 22.137c-0.007812 0.003907-0.015625 0.003907-0.019531 0.007813-0.039063-0.09375-0.082031-0.19922-0.12109-0.30469l26.832-15.281c0.050782 0.10938 0.10547 0.22266 0.15625 0.32422zm6.1797 1.6367 24.801-14.09c1.0156-0.57422 1.4062-1.8242 0.9375-2.8672-0.074219-0.28516-2.3281-3.418-2.3281-7.0547 0-2.6484 1.7734-7.1211 2.5312-9.0312 0.47656-1.2031 0.60547-1.5273 0.5625-2.1094-0.074219-1.0234-0.085938-1.1562-17.348-20.254-0.058594-0.066406-0.125-0.12891-0.19141-0.1875-1.6758-1.4609-4.2539-1.5234-6.0078-0.19922l-2.957 1.5273v-19.988h60.043v12.84c-12.422 0.40625-21.984 6.6172-21.984 14.5v39.543c0 0.24219 0.046875 0.47266 0.12109 0.69141 1.1523 8.6641 10.422 15.492 21.863 15.973v22.586h-60.043zm61.324 4.8633c-10.059 0-18.27-5.6602-18.738-12.734 3.9727 4.3516 10.883 7.2461 18.738 7.2461 7.8594 0 14.766-2.8945 18.742-7.2461-0.46875 7.0742-8.6836 12.734-18.742 12.734z" fill="#000000"/>
</svg>