<?xml version="1.0" encoding="UTF-8"?>
<svg width="128pt" height="128pt" version="1.1" viewBox="0 0 128 128" xmlns="http://www.w3.org/2000/svg">
 <path d="m84.559 50.598c0.67578 0.73828 1.0352 1.7188 0.99219 2.7188-0.046875 1.0039-0.48438 1.9492-1.2266 2.625l-23.656 21.691v0.003907c-0.69922 0.64062-1.6133 0.99609-2.5625 0.99609-0.070313 0.003907-0.14453-0.003906-0.21484-0.015624-1.0195-0.054688-1.9766-0.51953-2.6484-1.2891l-11.867-13.672c-1.3359-1.582-1.1523-3.9453 0.41016-5.3047 1.5625-1.3633 3.9297-1.2148 5.3125 0.33203l9.3164 10.727 20.789-19.051c1.5469-1.4062 3.9375-1.3008 5.3555 0.23828zm29.273 30.641c0.60547-0.42578 0.85547-1.1992 0.61328-1.8945l-3.8789-12.605c-0.56641-1.7852-0.56641-3.6992 0-5.4844l3.8789-12.605v0.003906c0.24219-0.69922-0.011718-1.4727-0.61328-1.8984l-10.547-7.918h-0.003906c-1.5078-1.1055-2.6328-2.6562-3.2188-4.4336l-4.2656-12.469c-0.21094-0.71094-0.875-1.1875-1.6172-1.168l-13.188-0.20312h0.003906c-1.8711-0.015625-3.6875-0.60547-5.2109-1.6914l-10.789-7.5977c-0.58594-0.44922-1.4062-0.44922-1.9922 0l-10.789 7.5977c-1.5234 1.0859-3.3398 1.6758-5.2109 1.6914l-13.188 0.20312c-0.73828-0.019531-1.4023 0.45703-1.6172 1.168l-4.2695 12.469c-0.58594 1.7773-1.7109 3.3281-3.2188 4.4336l-10.543 7.918c-0.60156 0.42578-0.85547 1.1953-0.61328 1.8945l3.8789 12.605c0.56641 1.7852 0.56641 3.6992 0 5.4844l-3.8789 12.605v-0.003906c-0.24219 0.69922 0.011718 1.4727 0.61328 1.8945l10.547 7.918h0.003906c1.5078 1.1094 2.6328 2.6562 3.2188 4.4336l4.2695 12.469v0.003906c0.20703 0.71484 0.875 1.1953 1.6172 1.168l13.188 0.21875c1.8711 0.003907 3.6914 0.59375 5.2031 1.6914l10.789 7.5781c0.58984 0.44141 1.4023 0.44141 1.9922 0l10.789-7.5781c1.5156-1.0977 3.3398-1.6914 5.2109-1.6914l13.188-0.21875h-0.003906c0.74609 0.027344 1.4141-0.45312 1.6172-1.168l4.2695-12.469 0.003906-0.003906c0.58594-1.7773 1.7109-3.3242 3.2188-4.4336l10.547-7.918zm7.8594-4.1289-3.8789-12.605h-0.003906c-0.11719-0.32812-0.11719-0.6875 0-1.0156l3.8789-12.605c1.1875-3.7539-0.14062-7.8438-3.3047-10.184l-10.547-7.918h-0.003907c-0.29297-0.19922-0.50391-0.49219-0.59766-0.83203l-4.2695-12.469c-1.2539-3.7305-4.7305-6.2578-8.6641-6.293l-13.188-0.20312c-0.35156 0.003906-0.69531-0.10938-0.96875-0.32031l-10.789-7.582c-3.207-2.2852-7.5039-2.2852-10.711 0l-10.789 7.582c-0.27734 0.21484-0.61719 0.32813-0.96875 0.32031l-13.188 0.20312c-3.9336 0.039062-7.4102 2.5664-8.6641 6.2969l-4.2695 12.469c-0.09375 0.33984-0.30469 0.63281-0.59766 0.82812l-10.551 7.918c-3.1641 2.3398-4.4922 6.4297-3.3086 10.184l3.8789 12.605h0.003906c0.11328 0.32812 0.11328 0.6875 0 1.0156l-3.8789 12.605h-0.003906c-1.1836 3.7539 0.14453 7.8438 3.3086 10.184l10.547 7.918 0.003907 0.003906c0.28906 0.19531 0.50391 0.48828 0.59766 0.82812l4.2695 12.469c1.2422 3.7383 4.7266 6.2695 8.6641 6.293l13.188 0.20312c0.34766 0.003907 0.6875 0.11719 0.96875 0.32422l10.789 7.5859c3.2031 2.2852 7.5078 2.2852 10.711 0l10.789-7.582c0.28125-0.20703 0.62109-0.32031 0.96875-0.32422l13.188-0.20312c3.9375-0.023438 7.4219-2.5547 8.6641-6.293l4.2695-12.469c0.09375-0.33984 0.30859-0.63281 0.59766-0.82812l10.547-7.918 0.003906-0.003906c3.1641-2.3398 4.4922-6.4297 3.3047-10.184zm-57.691 16.379c7.8203 0 15.324-3.1055 20.855-8.6367s8.6406-13.031 8.6406-20.852c0-7.8242-3.1055-15.324-8.6367-20.855s-13.031-8.6406-20.855-8.6406c-7.8203 0-15.324 3.1094-20.855 8.6406-5.5273 5.5312-8.6367 13.035-8.6328 20.855 0.007813 7.8164 3.1172 15.312 8.6445 20.84s13.023 8.6367 20.84 8.6484zm0-66.559v-0.003907c-9.832 0-19.262 3.9023-26.215 10.855-6.9531 6.9492-10.863 16.379-10.863 26.211 0 9.832 3.9023 19.266 10.855 26.219 6.9531 6.9531 16.379 10.859 26.211 10.859 9.8359 0 19.266-3.9062 26.219-10.855 6.9492-6.9531 10.855-16.383 10.859-26.215-0.011718-9.8281-3.918-19.25-10.867-26.199-6.9492-6.9531-16.371-10.863-26.199-10.875z" fill-rule="evenodd"/>
</svg>
