<?xml version="1.0" encoding="UTF-8"?>
<svg width="128pt" height="128pt" version="1.1" viewBox="0 0 128 128" xmlns="http://www.w3.org/2000/svg">
 <g>
  <path d="m49.57 85.965c4.2617 2.832 9.2773 4.3281 14.508 4.2383 5.0586-0.089844 9.8711-1.6523 13.945-4.4609 0.58984-0.40234 1.3945-0.25391 1.8008 0.33203 0.40234 0.58984 0.25391 1.3945-0.33203 1.7969-4.4961 3.0938-9.7969 4.8164-15.367 4.9141-5.7617 0.10156-11.293-1.5469-15.984-4.6719-0.59375-0.39453-0.75781-1.1953-0.35938-1.7891 0.39453-0.59375 1.1953-0.75781 1.7891-0.35938zm20.367-48.465c12.434 2.8594 21.469 13.867 21.695 26.801 0.074219 4.332-0.83594 8.5469-2.6445 12.387-0.30078 0.64453-1.0703 0.92188-1.7188 0.62109-0.64453-0.30469-0.92188-1.0742-0.61719-1.7227 1.6367-3.4805 2.4648-7.3047 2.3945-11.242-0.20312-11.738-8.4062-21.73-19.688-24.324-0.69531-0.16016-1.1328-0.85547-0.97266-1.5508 0.16016-0.69531 0.85547-1.1289 1.5508-0.96875zm-12.621 1.3008c0.20312 0.68359-0.1875 1.4023-0.875 1.6016-10.879 3.2031-18.418 13.324-18.219 24.828 0.0625 3.5312 0.83984 6.9453 2.2734 10.086 0.29297 0.65234 0.007812 1.418-0.64062 1.7109-0.65234 0.29688-1.418 0.011718-1.7148-0.63672-1.5742-3.4648-2.4336-7.2266-2.5039-11.113-0.21875-12.68 8.0859-23.824 20.078-27.352 0.68359-0.20312 1.4023 0.1875 1.6016 0.875z"/>
  <path d="m63.211 34.633c-2.1406 0-3.875 1.7344-3.875 3.8789 0 2.1406 1.7344 3.875 3.875 3.875 2.1406 0 3.8789-1.7344 3.8789-3.875 0-2.1445-1.7383-3.8789-3.8789-3.8789zm0 2.5859c0.71484 0 1.293 0.57812 1.293 1.293 0 0.71094-0.57812 1.2891-1.293 1.2891-0.71484 0-1.293-0.57812-1.293-1.2891 0-0.71484 0.57812-1.293 1.293-1.293z"/>
  <path d="m43.395 78.574c-2.1406 0-3.875 1.7344-3.875 3.8789 0 2.1406 1.7344 3.875 3.875 3.875s3.8789-1.7344 3.8789-3.875c0-2.1445-1.7383-3.8789-3.8789-3.8789zm0 2.5859c0.71484 0 1.293 0.57812 1.293 1.293 0 0.71094-0.57812 1.2891-1.293 1.2891-0.71484 0-1.293-0.57813-1.293-1.2891 0-0.71484 0.57813-1.293 1.293-1.293z"/>
  <path d="m83.891 78.574c-2.1406 0-3.8789 1.7344-3.8789 3.8789 0 2.1406 1.7383 3.875 3.8789 3.875s3.875-1.7344 3.875-3.875c0-2.1445-1.7344-3.8789-3.875-3.8789zm0 2.5859c0.71094 0 1.293 0.57812 1.293 1.293 0 0.71094-0.58203 1.2891-1.293 1.2891-0.71484 0-1.293-0.57813-1.293-1.2891 0-0.71484 0.57812-1.293 1.293-1.293z"/>
  <path d="m85.152 70.73c0.625-0.24609 1.3281 0.027343 1.625 0.61719l0.050781 0.11328 1.4453 3.6719 3.6758-1.4414c0.625-0.24609 1.3242 0.027344 1.625 0.61328l0.050781 0.11328c0.24609 0.625-0.03125 1.3281-0.61719 1.625l-0.11328 0.050781-4.0742 1.6055c-1.0664 0.41797-2.2578-0.070313-2.7383-1.0898l-0.054687-0.12891-1.6055-4.0742c-0.25781-0.66406 0.066406-1.4141 0.73047-1.6758z"/>
  <path d="m54.844 44.164c-0.63672-0.21094-0.99609-0.875-0.84766-1.5156l0.03125-0.11719 1.2578-3.7461-3.7461-1.2539c-0.63672-0.21484-0.99609-0.875-0.84766-1.5156l0.035156-0.12109c0.21484-0.63672 0.875-0.99609 1.5156-0.84766l0.12109 0.035156 4.1523 1.3906c1.082 0.36328 1.6836 1.5039 1.3984 2.5898l-0.042968 0.13672-1.3906 4.1523c-0.22656 0.67578-0.96094 1.043-1.6367 0.8125z"/>
  <path d="m49.785 92.328c0.64844-0.16797 1.0547-0.80469 0.95312-1.4531l-0.027343-0.12109-0.99219-3.8242 3.8242-0.98828c0.64844-0.17188 1.0547-0.80469 0.94922-1.4531l-0.023438-0.125c-0.16797-0.64844-0.80469-1.0547-1.4531-0.94922l-0.12109 0.023438-4.2422 1.1016c-1.1055 0.28516-1.7852 1.3789-1.5742 2.4844l0.03125 0.14062 1.1016 4.2383c0.17578 0.69141 0.88281 1.1055 1.5742 0.92578z"/>
 </g>
</svg>
