<svg width="128pt" height="128pt" version="1.1" viewBox="0 0 128 128" xmlns="http://www.w3.org/2000/svg">
 <g fill="#fff">
  <path d="m118.09 94.203h-108.19c-3.4336 0-6.2266-2.8008-6.2266-6.2461v-69.797c0-3.4375 2.793-6.2344 6.2266-6.2344h108.19c3.4375 0 6.2344 2.7969 6.2344 6.2344v69.797c0 3.4453-2.7969 6.2461-6.2344 6.2461zm-108.19-80.867c-2.6562 0-4.8125 2.1641-4.8125 4.8242v69.797c0 2.6641 2.1602 4.8359 4.8125 4.8359h108.19c2.6602 0 4.8242-2.168 4.8242-4.8359v-69.797c0-2.6602-2.1641-4.8242-4.8242-4.8242z" fill="#000000"/>
  <path d="m118.1 94.195h-108.2c-3.4375 0-6.2305-2.8008-6.2305-6.2383v-9.8008c0-0.39062 0.31641-0.70703 0.70703-0.70703h119.25c0.39062 0 0.70703 0.31641 0.70703 0.70703v9.8008c-0.003906 3.4375-2.7969 6.2383-6.2305 6.2383zm-113.02-15.332v9.0938c0 2.6602 2.1602 4.8281 4.8203 4.8281h108.2c2.6562 0 4.8164-2.1641 4.8164-4.8281v-9.0938z" fill="#000000"/>
  <path d="m77.508 105.62h-27.016c-0.39063 0-0.70703-0.31641-0.70703-0.70703v-11.426c0-0.39062 0.31641-0.70703 0.70703-0.70703h27.016c0.39063 0 0.70703 0.31641 0.70703 0.70703v11.426c0 0.39063-0.31641 0.70703-0.70703 0.70703zm-26.312-1.4141h25.605v-10.012h-25.605z" fill="#000000"/>
  <path d="m85.711 116.07h-43.422c-0.96875 0-1.8555-0.49219-2.3711-1.3125-0.51953-0.82031-0.57812-1.8359-0.15625-2.7109l3.0312-6.2578c0.46094-0.96094 1.4492-1.5859 2.5156-1.5859h37.379c1.0625 0 2.0508 0.62109 2.5156 1.5859l3.0273 6.2578c0.42188 0.875 0.36328 1.8906-0.15625 2.7109-0.51172 0.82031-1.3984 1.3125-2.3633 1.3125zm-40.398-10.453c-0.52734 0-1.0156 0.30859-1.2461 0.78516l-3.0312 6.2578c-0.21094 0.4375-0.18359 0.92969 0.078125 1.3438 0.26172 0.41406 0.6875 0.65234 1.1758 0.65234h43.418c0.48828 0 0.91406-0.23828 1.1758-0.65234 0.26172-0.41406 0.28906-0.90625 0.078126-1.3477l-3.0273-6.2539c-0.23047-0.47656-0.71875-0.78516-1.2461-0.78516z" fill="#000000"/>
  <path d="m94.801 86.828c-0.39062 0-0.74219-0.375-0.74219-0.76172 0-0.39062 0.35547-0.74219 0.74219-0.74219 0.39062 0 0.76172 0.35156 0.76172 0.74219 0 0.38672-0.37109 0.76172-0.76172 0.76172z" fill="#000000"/>
  <path d="m101.86 86.828c-0.39062 0-0.74219-0.375-0.74219-0.76172 0-0.39062 0.35547-0.74219 0.74219-0.74219 0.39062 0 0.76172 0.35156 0.76172 0.74219 0 0.38672-0.37109 0.76172-0.76172 0.76172z" fill="#000000"/>
  <path d="m108.92 86.828c-0.39062 0-0.74219-0.375-0.74219-0.76172 0-0.39062 0.35547-0.74219 0.74219-0.74219 0.39062 0 0.76172 0.35156 0.76172 0.74219 0 0.38672-0.375 0.76172-0.76172 0.76172z" fill="#000000"/>
  <path d="m115.98 86.828c-0.39062 0-0.74219-0.375-0.74219-0.76172 0-0.39062 0.35547-0.74219 0.74219-0.74219 0.39062 0 0.76172 0.35156 0.76172 0.74219 0 0.38672-0.375 0.76172-0.76172 0.76172z" fill="#000000"/>
  <path d="m37.695 65.867h-3.418c-0.98828 0-1.8555-0.66406-2.1055-1.6211l-1.2734-4.793c-0.070313-0.24219-0.25391-0.4375-0.51953-0.53906-0.36719-0.13672-0.74219-0.28906-1.1055-0.45312-0.26172-0.125-0.51953-0.12109-0.74609 0.011718l-4.3008 2.4844c-0.83984 0.48828-1.9219 0.35547-2.6289-0.33203l-2.4219-2.4336c-0.69141-0.67969-0.83984-1.7578-0.35156-2.6211l2.4961-4.3008c0.125-0.21484 0.12891-0.49219 0.015626-0.74219-0.16406-0.36328-0.32813-0.74219-0.47266-1.1172-0.097656-0.26953-0.28516-0.45312-0.51953-0.51172l-4.8008-1.2773c-0.95312-0.25-1.6211-1.1172-1.6211-2.1016v-3.418c0-0.98828 0.66797-1.8555 1.625-2.1055l4.7891-1.2852c0.24609-0.0625 0.42969-0.23828 0.52344-0.49609 0.14453-0.38281 0.30859-0.75781 0.47266-1.1211 0.066407-0.15234 0.15625-0.44922-0.011719-0.74219l-2.4805-4.3008c-0.48828-0.85938-0.34375-1.9414 0.34766-2.6328l2.418-2.4141c0.69922-0.69922 1.7578-0.83984 2.625-0.35547l4.2969 2.4961c0.28906 0.16797 0.58984 0.078125 0.74219 0.011719 0.35547-0.17188 0.73438-0.32812 1.1172-0.46875 0.25781-0.09375 0.44141-0.28516 0.51172-0.53516l1.2734-4.7812c0.24609-0.95312 1.1094-1.6211 2.1055-1.6211h3.418c0.98828 0 1.8555 0.66016 2.1055 1.6094l1.2852 4.8047c0.066406 0.23828 0.23828 0.4375 0.44922 0.51172 0.41797 0.15234 0.83594 0.32031 1.2383 0.51172 0.20703 0.097656 0.45703 0.082031 0.67187-0.042969l4.3008-2.4922c0.86719-0.49609 1.9453-0.34766 2.6289 0.35547l2.418 2.4062c0.70312 0.70313 0.83984 1.7891 0.33594 2.6406l-2.4805 4.293c-0.12891 0.22656-0.14063 0.48828-0.023438 0.74609 0.17188 0.35547 0.32812 0.72656 0.47266 1.1211 0.09375 0.25 0.28516 0.43359 0.51953 0.49219l4.8125 1.2891c0.94922 0.24609 1.6172 1.1133 1.6172 2.1016v3.418c0 0.98828-0.66797 1.8516-1.6211 2.1055l-4.8047 1.2852c-0.23438 0.0625-0.42969 0.25-0.52344 0.50391-0.14062 0.37891-0.29688 0.76172-0.47656 1.1289-0.10547 0.22656-0.097656 0.5 0.027344 0.71094l2.4883 4.3164c0.50391 0.85547 0.36328 1.9414-0.34375 2.6328l-2.4219 2.418c-0.69531 0.69531-1.7734 0.83984-2.6289 0.33594l-4.293-2.4766c-0.21484-0.125-0.46875-0.14062-0.67969-0.042968-0.41016 0.18359-0.82031 0.35547-1.2266 0.50781-0.22266 0.078125-0.39062 0.27344-0.45703 0.51562l-1.2852 4.793c-0.25391 0.95312-1.1172 1.6172-2.1055 1.6172zm-8.793-8.9062c0.32422 0 0.65234 0.074218 0.96484 0.21875 0.32031 0.14453 0.67187 0.28516 1.0195 0.41797 0.68359 0.26562 1.1836 0.80859 1.375 1.4844l1.2773 4.8047c0.089844 0.33594 0.39063 0.57031 0.74219 0.57031h3.418c0.34766 0 0.65234-0.23438 0.74219-0.56641l1.2852-4.7969c0.1875-0.69141 0.6875-1.2422 1.3359-1.4766 0.375-0.14063 0.75781-0.30469 1.125-0.46875 0.61328-0.28906 1.3594-0.25391 1.9727 0.10547l4.2969 2.4805c0.29688 0.17578 0.67969 0.125 0.91797-0.11328l2.4258-2.4258c0.24609-0.24219 0.29297-0.61719 0.11719-0.91406l-2.4844-4.3125c-0.35938-0.60156-0.39062-1.3633-0.085938-2.0273 0.16406-0.33984 0.30469-0.68359 0.42969-1.0234 0.25781-0.68359 0.8125-1.1953 1.4844-1.375l4.8047-1.2852c0.33594-0.089843 0.57031-0.39062 0.57031-0.73828v-3.418c0-0.34766-0.23438-0.65234-0.56641-0.73828l-4.8125-1.2891c-0.67187-0.17578-1.2266-0.6875-1.4805-1.3711-0.12891-0.35547-0.26562-0.6875-0.42578-1.0156-0.30859-0.6875-0.27734-1.4258 0.082032-2.0469l2.4844-4.2969c0.17969-0.30469 0.13281-0.6875-0.11328-0.92969l-2.4258-2.4102c-0.23828-0.24609-0.62109-0.29297-0.92188-0.125l-4.293 2.4883c-0.60937 0.35937-1.3555 0.39453-1.9844 0.097656-0.36719-0.17578-0.74219-0.32422-1.1133-0.46094-0.64062-0.23047-1.1406-0.78125-1.332-1.4688l-1.2852-4.8125c-0.085938-0.33203-0.39062-0.5625-0.74219-0.5625h-3.418c-0.35547 0-0.65234 0.22656-0.73828 0.56641l-1.2773 4.7969c-0.19922 0.69922-0.70313 1.2383-1.3867 1.4883-0.33984 0.125-0.67969 0.26172-1.0078 0.42188-0.69531 0.31641-1.4375 0.28516-2.0508-0.070313l-4.2891-2.4922c-0.30469-0.16797-0.67969-0.12109-0.92969 0.125l-2.4141 2.4141c-0.24219 0.24609-0.29297 0.62891-0.12109 0.9375l2.4766 4.293c0.35547 0.60938 0.38281 1.3516 0.078125 2.0312-0.15234 0.33594-0.30469 0.68359-0.4375 1.0312-0.25 0.6875-0.79297 1.1875-1.4844 1.3711l-4.7891 1.2852c-0.33984 0.089844-0.57422 0.39062-0.57422 0.73828v3.418c0 0.34766 0.23438 0.64844 0.57031 0.73828l4.7969 1.2773c0.67187 0.17188 1.2305 0.69141 1.4844 1.3867 0.12891 0.33984 0.28125 0.6875 0.43359 1.0195 0.30469 0.66406 0.27734 1.4258-0.078125 2.0352l-2.4922 4.2969c-0.16797 0.29688-0.11719 0.68359 0.12109 0.91797l2.4219 2.4297c0.24609 0.23828 0.63281 0.28906 0.92188 0.11719l4.3047-2.4844c0.32812-0.19141 0.69922-0.28906 1.0742-0.28906z" fill="#000000"/>
  <path d="m35.988 52.598c-4.8477 0-8.7891-3.9414-8.7891-8.7891 0-4.8438 3.9414-8.7891 8.7891-8.7891 4.8438 0 8.7891 3.9414 8.7891 8.7891s-3.9453 8.7891-8.7891 8.7891zm0-16.164c-4.0703 0-7.3789 3.3086-7.3789 7.375 0 4.0703 3.3086 7.3789 7.3789 7.3789 4.0664 0 7.375-3.3086 7.375-7.3789 0-4.0664-3.3086-7.375-7.375-7.375z" fill="#000000"/>
  <path d="m110.95 69.863h-6.4844c-1.7188 0-3.1172-1.3984-3.1172-3.1211v-24.02c0-1.7188 1.3984-3.1172 3.1172-3.1172h6.4844c1.7188 0 3.1172 1.3984 3.1172 3.1172v24.023c0.003907 1.7188-1.3945 3.1172-3.1172 3.1172zm-6.4805-28.848c-0.94141 0-1.707 0.76562-1.707 1.707v24.023c0 0.94141 0.76562 1.707 1.707 1.707h6.4844c0.94141 0 1.707-0.76562 1.707-1.707l-0.003906-24.023c0-0.94141-0.76562-1.707-1.707-1.707z" fill="#000000"/>
  <path d="m91.508 69.863h-6.4844c-1.7188 0-3.1211-1.3984-3.1211-3.1172l0.003906-41.336c0-1.7188 1.3984-3.1172 3.1211-3.1172h6.4844c1.7188 0 3.1172 1.3984 3.1172 3.1172v41.332c-0.003906 1.7227-1.4023 3.1211-3.1211 3.1211zm-6.4844-46.16c-0.94141 0-1.707 0.76562-1.707 1.707v41.332c0 0.94141 0.76562 1.707 1.707 1.707h6.4844c0.94141 0 1.707-0.76562 1.707-1.707v-41.332c0-0.94141-0.76562-1.707-1.707-1.707z" fill="#000000"/>
  <path d="m72.062 69.863h-6.4844c-1.7188 0-3.1172-1.3984-3.1172-3.1211v-16.328c0-1.7188 1.3984-3.1211 3.1172-3.1211h6.4844c1.7188 0 3.1172 1.3984 3.1172 3.1211v16.328c0 1.7227-1.3984 3.1211-3.1172 3.1211zm-6.4844-21.156c-0.94141 0-1.707 0.76562-1.707 1.707v16.328c0 0.94141 0.76562 1.707 1.707 1.707h6.4844c0.94141 0 1.707-0.76562 1.707-1.707v-16.328c0-0.94141-0.76562-1.707-1.707-1.707z" fill="#000000"/>
 </g>
</svg>