<?xml version="1.0" encoding="UTF-8"?>
<svg width="128pt" height="128pt" version="1.1" viewBox="0 0 128 128" xmlns="http://www.w3.org/2000/svg">
 <g>
  <path d="m106.8 61.199c-0.80078-0.80078-1.6016-1.1992-2.8008-1.1992h-28c-2.3984 0-4 1.6016-4 4v52c0 2.3984 1.6016 4 4 4h40c2.3984 0 4-1.6016 4-4v-40c0-1.1992-0.39844-2-1.1992-2.8008zm3.5977 14.801h-6.3984v-6.3984zm1.6016 36h-32v-44h16v12c0 2.3984 1.6016 4 4 4h12z"/>
  <path d="m84 92c0 2.3984 1.6016 4 4 4h16c2.3984 0 4-1.6016 4-4s-1.6016-4-4-4h-16c-2.3984 0-4 1.6016-4 4z"/>
  <path d="m104 100h-16c-2.3984 0-4 1.6016-4 4s1.6016 4 4 4h16c2.3984 0 4-1.6016 4-4s-1.6016-4-4-4z"/>
  <path d="m116 48h-6.8008c-0.39844-1.6016-1.1992-3.1992-2-4.8008l4.8008-4.8008c1.6016-1.6016 1.6016-4 0-5.6016l-16.801-16.797c-1.6016-1.6016-4-1.6016-5.6016 0l-4.8008 4.8008c-1.5977-0.80078-3.1953-1.6016-4.7969-2v-6.8008c0-2.3984-1.6016-4-4-4h-24c-2.3984 0-4 1.6016-4 4v6.8008c-1.6016 0.39844-3.1992 1.1992-4.8008 2l-4.8008-4.8008c-1.6016-1.6016-4-1.6016-5.6016 0l-16.797 16.801c-1.6016 1.6016-1.6016 4 0 5.6016l4.8008 4.8008c-0.80078 1.5977-1.6016 3.1953-2 4.7969h-6.8008c-2.3984 0-4 1.6016-4 4v24c0 2.3984 1.6016 4 4 4h6.8008c0.39844 1.6016 1.1992 3.1992 2 4.8008l-4.8008 4.8008c-1.6016 1.6016-1.6016 4 0 5.6016l16.801 16.797c1.6016 1.6016 4 1.6016 5.6016 0l4.8008-4.8008c1.6016 0.80078 3.1992 1.1992 4.8008 2l-0.003906 6.8008c0 2.3984 1.6016 4 4 4h12c2.3984 0 4-1.6016 4-4s-1.6016-4-4-4h-8v-5.6016c0-1.6016-1.1992-3.1992-2.8008-4-3.1992-0.80078-6-2-8.3984-3.6016-1.6016-0.80078-3.6016-0.80078-4.8008 0.80078l-4 4-11.199-11.199 4-4c1.1992-1.1992 1.6016-3.1992 0.80078-4.8008-1.6016-2.8008-2.8008-5.6016-3.6016-8.3984-0.39844-1.6016-2-2.8008-4-2.8008h-6v-16h5.6016c1.6016 0 3.1992-1.1992 4-2.8008 0.80078-3.1992 2-6 3.6016-8.3984 0.80078-1.6016 0.80078-3.6016-0.80078-4.8008l-4-4 11.199-11.199 4 4c1.1992 1.1992 3.1992 1.6016 4.8008 0.80078 2.8008-1.6016 5.6016-2.8008 8.3984-3.6016 1.6016-0.39844 2.8008-2 2.8008-4v-6.3984h16v5.6016c0 1.6016 1.1992 3.1992 2.8008 4 3.1992 0.80078 6 2 8.3984 3.6016 1.6016 0.80078 3.6016 0.80078 4.8008-0.80078l4-4 11.199 11.199-4 4c-1.1992 1.1992-1.6016 3.1992-0.80078 4.8008 1.6016 2.8008 2.8008 5.6016 3.6016 8.3984 0.39844 1.6016 2 2.8008 4 2.8008h6.3984v4c0 2.3984 1.6016 4 4 4s4-1.6016 4-4v-8c0-2-1.6016-3.6016-4-3.6016z"/>
  <path d="m76 48c0 2.3984 1.6016 4 4 4h8c2.3984 0 4-1.6016 4-4v-8c0-2.3984-1.6016-4-4-4-2 0-3.6016 1.1992-4 3.1992-5.6016-4.8008-12.398-7.1992-20-7.1992-17.602 0-32 14.398-32 32s14.398 32 32 32c2.3984 0 4-1.6016 4-4s-1.6016-4-4-4c-13.199 0-24-10.801-24-24s10.801-24 24-24c5.1992 0 10 1.6016 14 4.3984-1.1992 0.80078-2 2-2 3.6016z"/>
 </g>
</svg>
