<?xml version="1.0" encoding="utf-8"?>
<!-- Generator: Adobe Illustrator 27.2.0, SVG Export Plug-In . SVG Version: 6.00 Build 0)  -->
<svg version="1.1" id="Layer_1" xmlns="http://www.w3.org/2000/svg" xmlns:xlink="http://www.w3.org/1999/xlink" x="0px" y="0px"
	 viewBox="0 0 128 128" style="enable-background:new 0 0 128 128;" xml:space="preserve">
<style type="text/css">
	.st0{display:none;}
</style>
<g>
	<path d="M102.3,23.2c1-0.7,1.7-1.9,1.7-3.2c0-2.2-1.8-4-4-4h-8c-2.2,0-4,1.8-4,4v8c0,2.2,1.8,4,4,4c2.1,0,3.8-1.7,3.9-3.7
		C106.1,37.4,112,50.2,112,64c0,9.1-2.6,17.9-7.4,25.6c-1.2,1.9-0.6,4.3,1.2,5.5c0.7,0.4,1.4,0.6,2.1,0.6c1.3,0,2.6-0.7,3.4-1.9
		C117,84.9,120,74.6,120,64C120,48.4,113.6,33.8,102.3,23.2L102.3,23.2z"/>
	<path d="M100,96h-8c-2.2,0-4,1.8-4,4c0,1.8,1.2,3.3,2.8,3.8C83,109.1,73.6,112,64,112c-5,0-10-0.8-14.8-2.3c-2.1-0.7-4.4,0.5-5,2.6
		c-0.7,2.1,0.5,4.4,2.6,5c5.5,1.8,11.3,2.7,17.2,2.7c11.6,0,23-3.7,32.4-10.3c0.6,1.4,2,2.3,3.6,2.3c2.2,0,4-1.8,4-4v-8
		C104,97.8,102.2,96,100,96L100,96z"/>
	<path d="M28,32h8c2.2,0,4-1.8,4-4c0-1.8-1.2-3.3-2.8-3.8C45,18.9,54.4,16,64,16c5,0,10,0.8,14.8,2.3c2.1,0.7,4.4-0.5,5-2.6
		c0.7-2.1-0.5-4.4-2.6-5C75.7,8.9,69.9,8,64,8c-11.6,0-23,3.7-32.4,10.3C31,17,29.6,16,28,16c-2.2,0-4,1.8-4,4v8
		C24,30.2,25.8,32,28,32L28,32z"/>
	<path d="M36,96c-2.1,0-3.8,1.7-3.9,3.7C21.9,90.6,16,77.8,16,64c0-9.2,2.6-18.1,7.5-25.8c1.2-1.9,0.6-4.3-1.2-5.5
		c-1.9-1.2-4.3-0.6-5.5,1.2C11,42.8,8,53.3,8,64c0,15.6,6.4,30.2,17.7,40.8c-1,0.7-1.7,1.9-1.7,3.2c0,2.2,1.8,4,4,4h8
		c2.2,0,4-1.8,4-4v-8C40,97.8,38.2,96,36,96L36,96z"/>
	<path class="st0" d="M36,92h56c6.6,0,12-5.4,12-12H24C24,86.6,29.4,92,36,92z"/>
	<path class="st0" d="M32,44v32h64V44c0-4.4-3.6-8-8-8H40C35.6,36,32,39.6,32,44z M72.7,47.5c-0.8-0.7-1-2-0.3-2.8
		c0.7-0.8,2-1,2.8-0.3l12,10c0.5,0.4,0.7,0.9,0.7,1.5s-0.3,1.2-0.7,1.5l-12,10C74.9,67.8,74.5,68,74,68c-0.6,0-1.1-0.2-1.5-0.7
		c-0.7-0.8-0.6-2.1,0.3-2.8L82.9,56L72.7,47.5z M64,45.6c0.2-1.1,1.3-1.8,2.4-1.6c1.1,0.2,1.8,1.3,1.6,2.4l-4,20c-0.2,1-1,1.6-2,1.6
		c-0.1,0-0.3,0-0.4,0c-1.1-0.2-1.8-1.3-1.6-2.4L64,45.6z M52.7,44.5c0.9-0.7,2.1-0.6,2.8,0.3s0.6,2.1-0.3,2.8L45.1,56l10.2,8.5
		c0.8,0.7,1,2,0.3,2.8c-0.4,0.5-1,0.7-1.5,0.7c-0.5,0-0.9-0.2-1.3-0.5l-12-10C40.3,57.2,40,56.6,40,56s0.3-1.2,0.7-1.5L52.7,44.5z"
		/>
</g>
</svg>
