<?xml version="1.0" encoding="UTF-8"?>
<svg width="128pt" height="128pt" version="1.1" viewBox="0 0 128 128" xmlns="http://www.w3.org/2000/svg">
 <g>
  <path d="m76 32h-40c-2.2109 0-4 1.793-4 4v48c0 2.207 1.7891 4 4 4h40c2.2109 0 4-1.793 4-4v-48c0-2.207-1.7891-4-4-4zm-4 48h-32v-40h32z"/>
  <path d="m49.332 52h13.336c2.2109 0 4-1.793 4-4s-1.7891-4-4-4h-13.336c-2.2109 0-4 1.793-4 4s1.7891 4 4 4z"/>
  <path d="m49.332 64h13.336c2.2109 0 4-1.793 4-4s-1.7891-4-4-4h-13.336c-2.2109 0-4 1.793-4 4s1.7891 4 4 4z"/>
  <path d="m49.332 76h13.336c2.2109 0 4-1.793 4-4s-1.7891-4-4-4h-13.336c-2.2109 0-4 1.793-4 4s1.7891 4 4 4z"/>
  <path d="m120 60c0-9.7188-6.9805-17.824-16.184-19.617 0.0625-1.4609 0.18359-2.918 0.18359-4.3828s-0.80078-2.8125-2.0859-3.5117l-44-24c-1.1875-0.65234-2.6406-0.65234-3.8281 0l-44 24c-1.2852 0.69922-2.0859 2.0469-2.0859 3.5117 0 28.836 12.508 55.277 35.219 74.449l10.199 8.6094c0.74609 0.625 1.668 0.94141 2.582 0.94141s1.8359-0.31641 2.5859-0.94531l10.199-8.6094c7.5586-6.3828 13.973-13.574 19.219-21.445v15c0 1.6172 0.97266 3.0742 2.4688 3.6953 1.4961 0.62109 3.2148 0.28125 4.3594-0.86719l5.168-5.1719 5.1719 5.1719c0.76562 0.76562 1.7891 1.1719 2.8281 1.1719 0.51562 0 1.0352-0.10156 1.5312-0.30469 1.4961-0.62109 2.4688-2.0781 2.4688-3.6953v-28c0-0.03125-0.015625-0.054688-0.015625-0.089844 4.8359-3.6484 8.0156-9.3945 8.0156-15.91zm-56.383 44.332-7.6172 6.4336-7.6172-6.4336c-20.262-17.102-31.688-40.453-32.352-65.977l39.969-21.801 39.969 21.801c-0.019531 0.69922-0.078125 1.3867-0.11328 2.0898-9.043 1.9141-15.855 9.9492-15.855 19.555 0 6 2.7109 11.328 6.9062 14.996-5.5117 11.062-13.332 20.938-23.289 29.336zm40.383-9.9883-1.1719-1.1719c-1.5625-1.5625-4.0938-1.5625-5.6562 0l-1.1719 1.1719v-14.746c1.293 0.26172 2.6328 0.40234 4 0.40234s2.707-0.14062 4-0.40234zm-4-22.344c-6.6172 0-12-5.3828-12-12s5.3828-12 12-12 12 5.3828 12 12-5.3828 12-12 12z"/>
 </g>
</svg>
