<?xml version="1.0" encoding="UTF-8"?>
<svg width="128pt" height="128pt" version="1.1" viewBox="0 0 128 128" xmlns="http://www.w3.org/2000/svg">
 <path d="m108.8 76.16v-24.32c5.375-1.2812 9.4727-6.1445 9.4727-12.031 0-6.7852-5.5039-12.414-12.414-12.414-3.5859 0-6.6562 1.5352-8.9609 3.8398l-21.246-12.289c0.25781-1.1523 0.51172-2.1758 0.51172-3.457 0-6.7852-5.5039-12.414-12.414-12.414-6.7852 0-12.414 5.6328-12.414 12.414 0 1.2812 0.25781 2.4336 0.51172 3.5859l-20.992 12.16c-2.3047-2.4336-5.375-3.8398-8.9609-3.8398-6.7852 0-12.414 5.5039-12.414 12.414 0 5.8867 4.0977 10.754 9.4727 12.031v24.32c-5.375 1.2812-9.4727 6.1445-9.4727 12.031 0 6.7852 5.5039 12.414 12.414 12.414 3.5859 0 6.6562-1.5352 8.9609-3.8398l21.242 12.035c-0.38281 1.1523-0.51172 2.3047-0.51172 3.5859 0 6.7852 5.5039 12.414 12.414 12.414s12.414-5.5039 12.414-12.414c0-1.1523-0.25781-2.3047-0.51172-3.457l21.246-12.289c2.3047 2.4336 5.375 3.8398 8.9609 3.8398 6.7852 0 12.414-5.6328 12.414-12.414-0.25-5.7617-4.2188-10.625-9.7227-11.906zm-11.906 3.582-17.406-9.9844c0.64062-1.793 1.0234-3.7109 1.0234-5.7617 0-1.9219-0.38281-3.8398-1.0234-5.6328l17.406-10.113c1.6641 1.6641 3.7109 2.9453 6.0156 3.457v24.32c-2.3008 0.77344-4.4766 1.9258-6.0156 3.7148zm-33.152-4.8633c-6.0156 0-10.879-4.8633-10.879-10.879s4.8633-10.879 10.879-10.879c6.0156 0 10.879 4.8633 10.879 10.879 0.003906 6.0156-4.8594 10.879-10.879 10.879zm-38.781 1.2812v-24.32c2.3047-0.51172 4.3516-1.793 5.8867-3.3281l17.023 9.8555c-0.64062 1.793-1.0234 3.7109-1.0234 5.7617 0 2.0469 0.38281 3.9688 1.0234 5.8867l-17.023 9.8555c-1.4062-1.918-3.457-3.1992-5.8867-3.7109zm80.895-42.879c3.5859 0 6.5273 2.9453 6.5273 6.5273 0 3.5859-2.9453 6.5273-6.5273 6.5273-3.5859 0-6.5273-2.9453-6.5273-6.5273 0-3.5859 2.9453-6.5273 6.5273-6.5273zm-11.777 3.0703c-0.38281 1.1523-0.51172 2.3047-0.51172 3.457s0.25781 2.3047 0.51172 3.457l-17.406 9.9844c-2.4336-2.9453-5.8867-4.9922-9.7266-5.7617v-19.84c2.3047-0.64063 4.3516-1.793 6.0156-3.457zm-30.207-27.262c3.5859 0 6.5273 2.9453 6.5273 6.5273 0 3.5859-2.9453 6.5273-6.5273 6.5273-3.5859 0-6.5273-2.9453-6.5273-6.5273 0-3.5859 2.9453-6.5273 6.5273-6.5273zm-8.9609 15.102c1.6641 1.6641 3.7109 2.9453 6.1445 3.457v19.84c-4.0977 0.64062-7.6797 2.6875-10.113 5.7617l-17.023-9.8555c0.38281-1.1523 0.64062-2.3047 0.64062-3.5859 0-1.1523-0.25781-2.3047-0.51172-3.457zm-39.422 15.617c0-3.5859 2.9453-6.5273 6.5273-6.5273 3.5859 0 6.5273 2.9453 6.5273 6.5273 0 3.5859-2.9453 6.5273-6.5273 6.5273s-6.5273-2.9453-6.5273-6.5273zm6.6562 54.91c-3.5859 0-6.5273-2.9453-6.5273-6.5273 0-3.5859 2.9453-6.5273 6.5273-6.5273 3.5859 0 6.5273 2.9453 6.5273 6.5273 0 3.5859-2.9453 6.5273-6.5273 6.5273zm11.777-3.0703c0.38281-1.1523 0.51172-2.3047 0.51172-3.457s-0.25781-2.3047-0.51172-3.457l17.023-9.8555c2.5586 2.9453 6.0156 4.9922 10.113 5.6328v19.84c-2.4336 0.51172-4.4805 1.793-6.1445 3.457zm29.949 27.262c-3.5859 0-6.5273-2.9453-6.5273-6.5273 0-3.5859 2.9453-6.5273 6.5273-6.5273 3.5859 0 6.5273 2.9453 6.5273 6.5273 0 3.5859-2.9414 6.5273-6.5273 6.5273zm8.9609-14.973c-1.5352-1.6641-3.5859-2.9453-6.0156-3.457v-19.969c3.8398-0.76953 7.168-2.8164 9.6016-5.6328l17.406 10.113c-0.12891 0.89453-0.38281 2.0469-0.38281 3.1992s0.25781 2.3047 0.51172 3.457zm33.023-9.2188c-3.5859 0-6.5273-2.9453-6.5273-6.5273 0-3.5859 2.9453-6.5273 6.5273-6.5273 3.5859 0 6.5273 2.9453 6.5273 6.5273 0.12891 3.5859-2.8164 6.5273-6.5273 6.5273z"/>
</svg>
