<?xml version="1.0" encoding="UTF-8"?>
<svg width="128pt" height="128pt" version="1.1" viewBox="0 0 128 128" xmlns="http://www.w3.org/2000/svg">
 <g>
  <path d="m108.46 27.566c-0.93359 0.73438-1.8633 1.4609-2.7852 2.1758l-0.44922 0.35156v-0.003906c3.707 2.8359 7.0039 6.1719 9.7969 9.9102h-20.965c-1.082 1.2461-2.0508 2.582-2.8984 4h26.238c1.4922 3.1367 2.3555 6.5312 2.543 10h-31.859c-0.046875 0.65234-0.082031 1.3125-0.082031 2s0.027344 1.3516 0.070312 2h31.863c-0.19922 3.4688-1.0703 6.8633-2.5664 10h-26.238c0.84766 1.418 1.8203 2.7578 2.9062 4h21c-2.3828 3.2461-5.1797 6.168-8.3164 8.6914l2.5742 3.0586c7.2695-6.1211 14.707-14.207 14.707-27.75 0-13.648-7.2461-21.602-15.539-28.434z"/>
  <path d="m95.539 22.434c0.93359-0.73438 1.8633-1.4609 2.7852-2.1758l0.44922-0.35156v0.003906c-3.707-2.8359-7-6.1719-9.7891-9.9102h20.957c1.082-1.2461 2.0508-2.582 2.8984-4h-26.184c-0.63281-1.2852-1.1562-2.625-1.5664-4h-4.1406c2.2109 8.9844 8.0703 15.062 14.59 20.434z"/>
  <path d="m94.711 83.75 2.5742-3.0586c-6.8984-5.8086-13.285-12.816-13.285-24.691 0-14.52 9.3398-21.758 19.227-29.418 8.4062-6.5156 17.035-13.227 19.828-24.582h-4.1562c-2.7344 9.4648-10.246 15.312-18.125 21.418-10.211 7.918-20.773 16.102-20.773 32.582 0 13.543 7.4375 21.629 14.711 27.75z"/>
  <path d="m6.8906 68c1.8828 0 3.5859-1.1289 4.3086-2.8711l8.8008-21.129v75.934c0.011719 3.3164 2.6836 6.0078 6 6.043 3.3164 0.035157 6.0469-2.5977 6.1289-5.9102l0.87109-40.066h4l0.87109 40.066c0.082031 3.3125 2.8125 5.9453 6.1289 5.9102 3.3164-0.035156 5.9883-2.7266 6-6.043v-75.934l8.8008 21.129c0.97266 2.3867 3.6992 3.5312 6.0859 2.5586 2.3867-0.97656 3.5312-3.6992 2.5547-6.0859l-10.422-26.059c-1.8242-4.5547-6.2383-7.543-11.145-7.543h-21.75c-4.9062 0-9.3203 2.9883-11.145 7.543l-10.422 26.059c-0.57422 1.4375-0.40234 3.0664 0.46875 4.3477 0.86719 1.2812 2.3125 2.0508 3.8633 2.0508z"/>
  <path d="m47 14c0 6.6289-5.3711 12-12 12s-12-5.3711-12-12 5.3711-12 12-12 12 5.3711 12 12"/>
  <path d="m78.336 124.53c1.5625 0.96094 3.3633 1.4727 5.1992 1.4766 0.79297-0.003906 1.582-0.097656 2.3555-0.28125 2.582-0.61328 4.8086-2.2344 6.1875-4.5039l10.445-17.059c2.8828-4.707 1.4023-10.863-3.3086-13.75-4.7109-2.8828-10.867-1.4023-13.75 3.3086l-10.441 17.059c-2.875 4.7109-1.3945 10.863 3.3125 13.75zm10.547-28.727c0.82813-1.3633 2.1641-2.3438 3.7148-2.7188 1.5508-0.37891 3.1875-0.12109 4.5469 0.71094 1.3633 0.83594 2.3359 2.1758 2.7031 3.7266 0.37109 1.5547 0.10547 3.1875-0.73047 4.5469l-4.1797 6.8281-10.238-6.2539z"/>
  <path d="m122.5 119.96-18.18-11.07-6.7969 11.113c3.0312 3.8008 7.6328 6.0156 12.496 6.0078 4.8633-0.007812 9.4609-2.2344 12.48-6.0469z"/>
  <path d="m110 94c-0.94531 0.003906-1.8867 0.09375-2.8164 0.26562 1.3008 3.6758 1.0078 7.7305-0.8125 11.184l18.215 11.094c2.2344-4.9492 1.8008-10.691-1.1484-15.246-2.9492-4.5586-8.0078-7.3047-13.438-7.2969z"/>
 </g>
</svg>
