<svg width="128pt" height="128pt" version="1.1" viewBox="0 0 128 128" xmlns="http://www.w3.org/2000/svg">
 <g fill="#ffffff">
  <path d="m27.992 94.555c0.011718 0.011718 0.027343 0 0.039062 0.011718 0.11328 0.0625 0.25781 0.10156 0.39844 0.10156 0.14062 0 0.28125-0.039063 0.39844-0.10156 0.011719-0.011718 0.027344 0 0.039063-0.011718l7.5664-4.3789 18.648 10.766v8.7422c0 0.011718 0.011719 0.027344 0.011719 0.039062 0 0.14062 0.039062 0.26953 0.10156 0.39844 0.078126 0.12891 0.19141 0.24219 0.32031 0.32031l8.0117 4.6211c0.16406 0.097656 0.32031 0.13672 0.47266 0.13672s0.30859-0.039063 0.44922-0.11328l8.0117-4.6328c0.14062-0.078125 0.24219-0.19141 0.32031-0.32031 0.078125-0.12891 0.10156-0.26953 0.10156-0.39844 0-0.011719 0.011719-0.027344 0.011719-0.039063v-8.7422l18.648-10.766 7.5664 4.3789c0.011719 0.011719 0.027344 0 0.039063 0.011719 0.11328 0.0625 0.25781 0.10156 0.39844 0.10156s0.28125-0.039063 0.39844-0.10156c0.011719-0.011719 0.027344 0 0.039063-0.011719l8.0117-4.6328c0.26953-0.15234 0.44922-0.44922 0.44922-0.76953v-9.2539c0-0.011718-0.011718-0.027344-0.011718-0.039062 0-0.14062-0.039063-0.26953-0.10156-0.39844-0.078125-0.12891-0.17969-0.21875-0.29297-0.29297-0.011718-0.011719-0.011718-0.027344-0.027343-0.027344l-7.5781-4.3789-0.003906-21.539 7.5781-4.3789c0.14063-0.078125 0.24219-0.19141 0.32031-0.32031s0.10156-0.26953 0.10156-0.39844c0-0.011719 0.011718-0.027344 0.011718-0.039063v-9.2539c0-0.32031-0.16797-0.60156-0.44922-0.76953l-8.0117-4.6328c-0.011719-0.011718-0.027344 0-0.039063-0.011718-0.11328-0.0625-0.25781-0.10156-0.39844-0.10156s-0.28125 0.039063-0.39844 0.10156c-0.011719 0.011718-0.027343 0-0.039062 0.011718l-7.5781 4.3789-18.648-10.766v-8.7422c0-0.011719-0.011718-0.027344-0.011718-0.039062 0-0.14063-0.039063-0.26953-0.10156-0.39844-0.078125-0.12891-0.17969-0.21875-0.29297-0.29297-0.011718-0.011719-0.011718-0.027343-0.027344-0.027343l-8.0117-4.6328c-0.26953-0.15234-0.61328-0.15234-0.88281 0l-8.0117 4.6328c-0.011718 0.011718-0.011718 0.027343-0.027343 0.027343-0.11328 0.078125-0.21875 0.16797-0.29297 0.29297-0.078125 0.12891-0.10156 0.26953-0.10156 0.39844 0 0.011718-0.011719 0.027343-0.011719 0.039062v8.7422l-18.648 10.766-7.5781-4.3789c-0.011718-0.011718-0.027344 0-0.039062-0.011718-0.11328-0.0625-0.25781-0.10156-0.39844-0.10156s-0.28125 0.039063-0.39844 0.10156c-0.011719 0.011718-0.027344 0-0.039063 0.011718l-8.0117 4.6328c-0.26953 0.15234-0.44922 0.44922-0.44922 0.76953v9.2539c0 0.011719 0.011719 0.027344 0.011719 0.039063 0 0.14062 0.039062 0.26953 0.10156 0.39844 0.078125 0.12891 0.19141 0.24219 0.32031 0.32031h0.011719l7.5664 4.3633v21.531l-7.5781 4.3789c-0.011718 0.011719-0.011718 0.027344-0.027343 0.027344-0.11328 0.078125-0.21875 0.16797-0.29297 0.29297-0.078125 0.12891-0.10156 0.26953-0.10156 0.39844 0 0.011719-0.011719 0.027344-0.011719 0.039063v9.2539c0 0.32031 0.16797 0.60156 0.44922 0.76953zm7.5781-5.9023-6.2461 3.6094v-7.2188l6.2461-3.6094zm28.43 24.641-6.2461-3.6094 6.2461-3.5977 6.2461 3.6094zm-7.1289-5.1328v-7.2188l6.2461-3.6094v7.2188zm14.258 0-6.2461-3.6094v-7.2188l6.2461 3.6094zm27.547-15.91-6.2461-3.6094v-7.2188l6.2461 3.6094zm8.0117-3.5977-6.2461 3.6094v-7.2188l6.2461-3.6094zm-0.88281-8.7539-6.2461 3.6094-6.2461-3.6094 6.2461-3.6094zm-5.3633-44.16 6.2461 3.6094v7.2188l-6.2461-3.6094zm-0.88281 8.7539 6.2461 3.6094-6.2461 3.6094-6.2461-3.6094zm-7.1289-5.1445 6.2461-3.6094v7.2188l-6.2461 3.6094zm-28.43-24.641 6.2461 3.6094-6.2461 3.5977-6.2461-3.6094zm7.1289 5.1328v7.2188l-6.2461 3.6094v-7.2188zm-14.258 0 6.2461 3.6094v7.2188l-6.2461-3.6094zm-19.969 29.02c0.14062-0.078125 0.24219-0.19141 0.32031-0.32031 0.078125-0.12891 0.10156-0.26953 0.10156-0.39844 0-0.011719 0.011719-0.027344 0.011719-0.039063v-8.7422l18.648-10.766 7.5781 4.3789c0.011719 0.011719 0.027344 0 0.039062 0.011719 0.11328 0.0625 0.25781 0.10156 0.39844 0.10156s0.28125-0.039063 0.39844-0.10156c0.011718-0.011719 0.027343 0 0.039062-0.011719l7.5781-4.3789 18.648 10.766v8.7422c0 0.011719 0.011719 0.027344 0.011719 0.039063 0 0.14062 0.039063 0.26953 0.10156 0.39844 0.078125 0.12891 0.19141 0.24219 0.32031 0.32031h0.011719l7.5664 4.3633v21.531l-7.5664 4.3633c-0.011719 0.011718-0.011719 0.027343-0.027344 0.027343-0.11328 0.078125-0.21875 0.16797-0.29297 0.29297-0.078124 0.12891-0.10156 0.26953-0.10156 0.39844 0 0.011718-0.011719 0.027343-0.011719 0.039062v8.7422l-18.637 10.766-7.5781-4.3789c-0.011719-0.011718-0.027344 0-0.039063-0.011718-0.11328-0.0625-0.25781-0.10156-0.39844-0.10156-0.14063 0-0.28125 0.039063-0.39844 0.10156-0.011719 0.011718-0.027344 0-0.039062 0.011718l-7.5781 4.3789-18.637-10.766v-8.7422c0-0.011719-0.011719-0.027344-0.011719-0.039062 0-0.14063-0.039063-0.26953-0.10156-0.39844-0.078124-0.12891-0.17969-0.21875-0.29297-0.29297-0.011719-0.011719-0.011719-0.027343-0.027344-0.027343l-7.5664-4.3633 0.003906-21.52zm-7.5781-13.121 6.2461 3.6094v7.2188l-6.2461-3.6094zm-8.0117 3.6094 6.2461-3.6094v7.2188l-6.2461 3.6094zm0.88281 8.7539 6.2461-3.6094 6.2461 3.6094-6.2461 3.6094zm6.2461 28.199 6.2461 3.6094-6.2461 3.6094-6.2461-3.6094zm-7.1289 5.1328 6.2461 3.6094v7.2188l-6.2461-3.6094z" fill="#000000"/>
  <path d="m42.395 68.312 4.4141 1.4062c0.26953 0.83203 0.60156 1.6367 1 2.3945l-2.1523 4.1211c-0.17969 0.34375-0.11328 0.76953 0.15234 1.0352l4.9297 4.9023c0.26953 0.26953 0.69141 0.33203 1.0234 0.15234l4.1328-2.1367c0.75391 0.37109 1.5469 0.70312 2.3672 1l1.4062 4.4023c0.11328 0.37109 0.46094 0.61328 0.84375 0.61328h6.9492c0.38281 0 0.73047-0.24219 0.84375-0.61328l1.4062-4.4023c0.83203-0.28125 1.625-0.61328 2.3672-1l4.1328 2.1367c0.34375 0.17969 0.75391 0.11328 1.0234-0.16797l4.9023-4.9023c0.26953-0.26953 0.33203-0.69141 0.16797-1.0234l-2.1367-4.1211c0.37109-0.71875 0.69141-1.5117 1-2.3945l4.4297-1.4062c0.37109-0.11328 0.61328-0.46094 0.61328-0.84375l0.011718-6.9219c0-0.38281-0.24219-0.71875-0.61328-0.84375l-4.4297-1.4336c-0.26953-0.83203-0.61328-1.625-1-2.3789l2.1367-4.1211c0.17969-0.34375 0.11328-0.75391-0.16797-1.0234l-4.9023-4.9023c-0.26953-0.26953-0.69141-0.33203-1.0352-0.15234l-4.1094 2.1367c-0.73047-0.37109-1.5117-0.69141-2.3945-0.98438l-1.4062-4.4297c-0.11328-0.37109-0.46094-0.61328-0.84375-0.61328h-6.9492c-0.38281 0-0.73047 0.24219-0.84375 0.61328l-1.4062 4.4297c-0.88281 0.29297-1.6758 0.62891-2.3945 1l-4.1094-2.125c-0.34375-0.17969-0.75391-0.11328-1.0234 0.15234l-4.9297 4.9023c-0.26953 0.26953-0.33203 0.69141-0.16797 1.0352l2.1523 4.1211c-0.38281 0.75391-0.73047 1.5469-1 2.3789l-4.4297 1.4336c-0.37109 0.11328-0.61328 0.46094-0.61328 0.84375v6.9258c0.035156 0.34375 0.28125 0.69141 0.65234 0.80469zm1.1523-7.1172 4.25-1.3711c0.28125-0.089844 0.48828-0.30859 0.57422-0.58984 0.30859-1.0234 0.71875-1.9961 1.2148-2.9062 0.14062-0.25781 0.15234-0.57422 0.011718-0.83203l-2.0625-3.9688 4.0078-3.9922 3.9414 2.0469c0.25781 0.14062 0.57422 0.12891 0.83203-0.011719 0.83203-0.46094 1.793-0.85937 2.9297-1.2148 0.26953-0.089844 0.48828-0.29297 0.57422-0.57422l1.3555-4.25h5.6562l1.3555 4.25c0.089844 0.26953 0.29297 0.48828 0.57422 0.57422 1.125 0.35938 2.0859 0.75391 2.9453 1.2305 0.25781 0.14062 0.5625 0.14062 0.83203 0.011718l3.9414-2.0469 3.9922 3.9922-2.0469 3.9688c-0.14062 0.26953-0.12891 0.57422 0.011719 0.83203 0.5 0.89453 0.91016 1.8828 1.2148 2.9062 0.089844 0.28125 0.29297 0.5 0.57422 0.58984l4.25 1.3711v5.6328l-4.25 1.3555c-0.26953 0.089843-0.48828 0.30859-0.57422 0.57422-0.35938 1.1406-0.75391 2.0977-1.2148 2.9297-0.14062 0.25781-0.15234 0.57422-0.011719 0.83203l2.0469 3.9688-3.9922 3.9922-3.9688-2.0469c-0.25781-0.12891-0.5625-0.12891-0.82031 0-0.91016 0.48828-1.8945 0.89453-2.9297 1.2305-0.26953 0.089843-0.48828 0.29297-0.57422 0.57422l-1.3555 4.2227h-5.6562l-1.3555-4.2227c-0.089843-0.26953-0.29297-0.48828-0.57422-0.57422-1.0352-0.33203-2.0234-0.74219-2.9297-1.2305-0.25781-0.14062-0.5625-0.14062-0.82031 0l-3.9688 2.0469-4.0078-3.9922 2.0625-3.957c0.14062-0.26953 0.12891-0.57422-0.011719-0.83203-0.5-0.91016-0.91016-1.8945-1.2148-2.918-0.078125-0.28125-0.29297-0.5-0.57422-0.58984l-4.25-1.3555v-5.6562z" fill="#000000"/>
  <path d="m64 76.133c6.6797 0 12.133-5.4414 12.133-12.133 0-6.6953-5.4414-12.133-12.133-12.133-6.6953 0-12.133 5.4414-12.133 12.133 0 6.6953 5.4531 12.133 12.133 12.133zm0-22.488c5.707 0 10.355 4.6445 10.355 10.355 0 5.707-4.6445 10.355-10.355 10.355-5.707 0-10.355-4.6445-10.355-10.355 0-5.707 4.6484-10.355 10.355-10.355z" fill="#000000"/>
 </g>
</svg>