<?xml version="1.0" encoding="UTF-8"?>
<svg width="128pt" height="128pt" version="1.1" viewBox="0 0 128 128" xmlns="http://www.w3.org/2000/svg">
 <g>
  <path d="m40.262 54.566c-1.3555-0.38672-2.6133-1.0547-3.6914-1.9648l-18.398 18.398h5.6562z"/>
  <path d="m62 54.953h4v37.047h-4z"/>
  <path d="m104.17 71h5.6562l-18.398-18.398c-1.0781 0.90625-2.3359 1.5781-3.6914 1.9609z"/>
  <path d="m43 50.953h42c3.3125-0.003906 5.9961-2.6875 6-6v-34.953c-0.003906-3.3125-2.6875-5.9961-6-6h-18.863c-2.0039 0-3.875 0.99609-4.9883 2.6602l-4.2188 6.293h-13.934 0.003906c-3.3125 0.003906-5.9961 2.6875-6 6v26c0.003906 3.3125 2.6875 5.9961 6 6zm42-4h-42c-1.1055 0-2-0.89453-2-2v-19.953h8.8633c0.66797 0 1.293 0.33203 1.6641 0.88672 0.070312 0.10156 0.14844 0.19922 0.23438 0.28906l4.1094 4.1836c0.75391 1.0039 1.9375 1.5977 3.1953 1.5977h27.934v12.996c0 1.1055-0.89453 2-2 2zm-42-30h13.934v0.003906c1.332 0 2.582-0.66406 3.3242-1.7773l4.2188-6.293h-0.003906c0.37109-0.55469 0.99609-0.88672 1.6641-0.88672h18.863c1.1055 0 2 0.89453 2 2v17.953h-27.934c-0.070312-0.10156-0.14844-0.19922-0.23438-0.28516l-4.1016-4.1758h0.003906c-1.1289-1.5664-2.9414-2.4922-4.8711-2.4922h-8.8633v-2.0469c0-1.1016 0.89453-1.9961 2-2z"/>
  <path d="m4 103h28c2.207-0.003906 3.9961-1.793 4-4v-20c-0.003906-2.207-1.793-3.9961-4-4h-28c-2.207 0.003906-3.9961 1.793-4 4v20c0.0039062 2.207 1.793 3.9961 4 4zm0-24h28l0.003906 20h-28.004z"/>
  <path d="m92 79v20c0.003906 2.207 1.793 3.9961 4 4h28c2.207-0.003906 3.9961-1.793 4-4v-20c-0.003906-2.207-1.793-3.9961-4-4h-28c-2.207 0.003906-3.9961 1.793-4 4zm32.004 20h-28.004v-20h28z"/>
  <path d="m46 100v20c0.003906 2.207 1.793 3.9961 4 4h28c2.207-0.003906 3.9961-1.793 4-4v-20c-0.003906-2.207-1.793-3.9961-4-4h-28c-2.207 0.003906-3.9961 1.793-4 4zm32.004 20h-28.004v-20h28z"/>
  <path d="m56 108h16c1.1055 0 2-0.89453 2-2s-0.89453-2-2-2h-16c-1.1055 0-2 0.89453-2 2s0.89453 2 2 2z"/>
  <path d="m56 115.92h16c1.1055 0 2-0.89453 2-2s-0.89453-2-2-2h-16c-1.1055 0-2 0.89453-2 2s0.89453 2 2 2z"/>
  <path d="m26 83h-16c-1.1055 0-2 0.89453-2 2s0.89453 2 2 2h16c1.1055 0 2-0.89453 2-2s-0.89453-2-2-2z"/>
  <path d="m26 90.918h-16c-1.1055 0-2 0.89453-2 2s0.89453 2 2 2h16c1.1055 0 2-0.89453 2-2s-0.89453-2-2-2z"/>
  <path d="m102 87h16c1.1055 0 2-0.89453 2-2s-0.89453-2-2-2h-16c-1.1055 0-2 0.89453-2 2s0.89453 2 2 2z"/>
  <path d="m102 94.918h16c1.1055 0 2-0.89453 2-2s-0.89453-2-2-2h-16c-1.1055 0-2 0.89453-2 2s0.89453 2 2 2z"/>
 </g>
</svg>
