<?xml version="1.0" encoding="UTF-8"?>
<svg width="128pt" height="128pt" version="1.1" viewBox="0 0 128 128" xmlns="http://www.w3.org/2000/svg">
 <g>
  <path d="m28 116h-16c-2.2109 0-4-1.793-4-4v-16c0-2.207 1.7891-4 4-4h16c2.2109 0 4 1.793 4 4v16c0 2.207-1.7891 4-4 4zm-12-8h8v-8h-8z"/>
  <path d="m56 88h-16c-2.2109 0-4-1.793-4-4v-16c0-2.207 1.7891-4 4-4h16c2.2109 0 4 1.793 4 4v16c0 2.207-1.7891 4-4 4zm-12-8h8v-8h-8z"/>
  <path d="m84 60h-16c-2.2109 0-4-1.793-4-4v-16c0-2.207 1.7891-4 4-4h16c2.2109 0 4 1.793 4 4v16c0 2.207-1.7891 4-4 4zm-12-8h8v-8h-8z"/>
  <path d="m112 32h-16c-2.2109 0-4-1.793-4-4v-16c0-2.207 1.7891-4 4-4h16c2.2109 0 4 1.793 4 4v16c0 2.207-1.7891 4-4 4zm-12-8h8v-8h-8z"/>
  <path d="m40 120c-2.2109 0-4-1.793-4-4v-20c0-2.207 1.7891-4 4-4h24v-24c0-2.207 1.7891-4 4-4h24v-24c0-2.207 1.7891-4 4-4h20c2.2109 0 4 1.793 4 4s-1.7891 4-4 4h-16v24c0 2.207-1.7891 4-4 4h-24v24c0 2.207-1.7891 4-4 4h-24v16c0 2.207-1.7891 4-4 4z"/>
 </g>
</svg>
