<?xml version="1.0" encoding="UTF-8"?>
<svg width="128pt" height="128pt" version="1.1" viewBox="0 0 128 128" xmlns="http://www.w3.org/2000/svg">
 <g>
  <path d="m15.23 93.953c0.76953-3.0703 1.9219-5.8867 3.3281-8.7031h32.77c0.12891-1.2812 0.51172-2.5586 1.0234-3.7109l2.3047-5.1211c-3.457-4.7344-7.6797-8.9609-12.801-12.414 13.566-8.9609 21.762-24.062 21.762-40.574v-16.902c0-1.793-1.5352-3.3281-3.3281-3.3281-1.793 0-3.3281 1.5352-3.3281 3.3281v5.6328h-43.008v-5.6328c0-1.793-1.5352-3.3281-3.3281-3.3281s-3.3281 1.5352-3.3281 3.3281v16.895c0 16.512 8.1914 31.617 21.762 40.574-13.566 8.9609-21.762 24.062-21.762 40.574v16.895c0 1.793 1.5352 3.3281 3.3281 3.3281s3.3281-1.5352 3.3281-3.3281v-5.6328h34.305l2.9453-6.6562-37.25 0.007813v-4.7344c0-1.2812 0.12891-2.6875 0.25781-3.9688h37.504c0-1.2812 0.25781-2.4336 0.89453-3.7109l1.4062-2.9453h-38.785zm-1.2773-70.527v-4.7344h43.137v4.7344c0 1.4062-0.12891 2.6875-0.25781 3.9688l-42.754-0.003906c-0.125-1.2773-0.125-2.5586-0.125-3.9648zm4.6055 19.328c-1.4062-2.8164-2.5586-5.6328-3.3281-8.7031h40.449c-0.76953 3.0703-1.9219 5.8867-3.3281 8.7031zm4.2266 6.6523h25.344c-3.457 4.3516-7.6797 8.0625-12.672 10.879-4.9922-2.8125-9.2188-6.5234-12.672-10.879zm12.672 18.305c4.9922 2.8164 9.3438 6.5273 12.672 10.879l-25.344 0.003906c3.4531-4.3555 7.6797-8.0664 12.672-10.883z"/>
  <path d="m58.496 99.586c-0.64062 1.4062 0 3.1992 1.4062 3.8398l1.1523 0.51172-7.8086 17.023c-0.64062 1.2812 0 2.9453 1.2812 3.5859 1.4062 0.64062 2.9453 0 3.5859-1.2812l7.8086-17.027 1.1523 0.51172c1.4062 0.64062 3.1992 0 3.8398-1.4062l1.5352-3.3281-12.289-5.6328z"/>
  <path d="m113.28 37.633-30.977-14.336c-1.2812-0.64062-2.9453 0-3.457 1.2812-0.64062 1.2812 0 2.9453 1.2812 3.5859l3.3281 1.5352-4.3516 9.3438 8.832 4.0977c1.2812 0.64062 1.9219 2.1758 1.2812 3.457s-2.1758 1.9219-3.5859 1.2812l-8.832-4.0977-4.9922 10.879 8.832 4.0977c1.2812 0.64063 1.9219 2.1758 1.2812 3.457s-2.1758 1.9219-3.5859 1.2812l-8.832-4.0977-4.7344 11 8.832 4.0977c1.2812 0.64062 1.9219 2.1758 1.2812 3.457-0.64062 1.2812-2.1758 1.9219-3.5859 1.2812l-8.832-4.0977-4.0977 8.9609c-1.1523 2.5586 0 5.5039 2.4336 6.6562l15.105 6.9102c2.5586 1.1523 5.5039 0 6.6562-2.4336l25.09-54.527 3.3281 1.5352c1.2812 0.64062 2.9453 0 3.457-1.2812 0.76172-1.1484 0.12109-2.8125-1.1562-3.3242z"/>
  <path d="m119.17 15.617-23.938-11.008c-1.4062-0.64062-2.9453 0-3.457 1.2812-0.64063 1.4062 0 2.9453 1.2812 3.5859l5.375 2.5586-4.9922 10.754 12.93 6.0156 4.9922-10.754 5.5039 2.5586c1.2812 0.64062 2.9453 0 3.5859-1.2812 0.64062-1.5352 0-3.1992-1.2812-3.7109z"/>
 </g>
</svg>
