<svg width="128pt" height="128pt" version="1.1" viewBox="0 0 128 128" xmlns="http://www.w3.org/2000/svg">
 <path d="m41.328 46.367v-11.336c0-3.4766 2.8203-6.2969 6.2969-6.2969h45.344c1.6719 0 3.2734 0.66406 4.4531 1.8438s1.8438 2.7812 1.8438 4.4531v20.152c0 0.69531-0.5625 1.2578-1.2578 1.2578-0.69531 0-1.2617-0.5625-1.2617-1.2578v-20.152c0-1.0039-0.39453-1.9648-1.1055-2.6719-0.70703-0.70703-1.668-1.1055-2.6719-1.1055h-45.344c-2.0859 0-3.7773 1.6914-3.7773 3.7773v11.336h4c-0.54688-1.1484-0.85156-2.4258-0.85156-3.7773 0-4.8672 3.9531-8.8164 8.8164-8.8164 4.8672 0 8.8164 3.9492 8.8164 8.8164 0 4.8633-3.9492 8.8164-8.8164 8.8164-1.1094 0-2.168-0.20703-3.1484-0.58203v3.1016c1.0039 0 1.9648 0.39453 2.6719 1.1055 0.0625 0.058594 0.375 0.15234 0.47656 0.15234 4.8672 0 8.8164 3.9492 8.8164 8.8164s-3.9492 8.8164-8.8164 8.8164c-1.1094 0-2.1719-0.20312-3.1484-0.57812v4.9375c0.98047-0.375 2.0391-0.58203 3.1484-0.58203 4.8672 0 8.8164 3.9531 8.8164 8.8164 0 4.8672-3.9492 8.8203-8.8164 8.8203-1.9297 0-3.7148-0.625-5.168-1.6758-1.125 1.0391-2.625 1.6758-4.2773 1.6758h-2.3047c0.51562 1.4648 1.918 2.5156 3.5625 2.5156h45.344c1.0039 0 1.9648-0.39453 2.6719-1.1055 0.71094-0.70703 1.1055-1.668 1.1055-2.6719v-32.746c0-0.69531 0.56641-1.2617 1.2617-1.2617 0.69531 0 1.2578 0.56641 1.2578 1.2617v32.746c0 1.6719-0.66406 3.2734-1.8438 4.4531s-2.7812 1.8438-4.4531 1.8438h-45.344c-3.0469 0-5.5898-2.1641-6.1719-5.0352h-2.6445c-3.4766 0-6.2969-2.8203-6.2969-6.3008v-15.113c0-0.69531 0.56641-1.2578 1.2617-1.2578 0.69141 0 1.2578 0.5625 1.2578 1.2578v15.113c0 2.0898 1.6914 3.7812 3.7773 3.7812h7.5586c2.0859 0 3.7773-1.6914 3.7773-3.7812v-26.449h-15.113v6.2969c0 0.69531-0.56641 1.2617-1.2578 1.2617-0.69531 0-1.2617-0.56641-1.2617-1.2617v-6.2969c-1.0039 0-1.9648-0.39844-2.6719-1.1055-0.70703-0.70703-1.1055-1.6719-1.1055-2.6719 0-1.0039 0.39844-1.9648 1.1055-2.6719 0.70703-0.71094 1.668-1.1055 2.6719-1.1055v-3.7812c0-2.0859 1.6914-3.7773 3.7773-3.7773zm27.711-11.336v57.938c0 0.69531 0.5625 1.2617 1.2578 1.2617s1.2617-0.56641 1.2617-1.2617v-57.938c0-0.69531-0.56641-1.2578-1.2617-1.2578s-1.2578 0.5625-1.2578 1.2578zm15.742 41.562c-4.8633 0-8.8164 3.9531-8.8164 8.8164 0 4.8672 3.9531 8.8203 8.8164 8.8203 4.8672 0 8.8164-3.9531 8.8164-8.8203 0-4.8633-3.9492-8.8164-8.8164-8.8164zm-22.797 10.078h-9.3203v1.2578c0 0.91797-0.19531 1.793-0.55078 2.5781 1.0391 0.75781 2.3164 1.2031 3.6992 1.2031 3.0469 0 5.5898-2.168 6.1719-5.0391zm28.969 0h-12.344c0.58594 2.8711 3.1289 5.0391 6.1719 5.0391 3.0469 0 5.5898-2.168 6.1719-5.0391zm-28.969-2.5195c-0.58203-2.8711-3.125-5.0391-6.1719-5.0391-1.1445 0-2.2227 0.30859-3.1484 0.84375v4.1953zm28.969 0c-0.58203-2.8711-3.125-5.0391-6.1719-5.0391-3.043 0-5.5859 2.168-6.1719 5.0391zm-53.711-7.5586 5.3477-5.3438c0.70703-0.70703 1.668-1.1055 2.668-1.1055 1.0039 0 1.9648 0.39844 2.6758 1.1055 0.70703 0.71094 1.1055 1.6719 1.1055 2.6758 0 1-0.39844 1.9609-1.1055 2.668l-5.3438 5.3477c-0.71094 0.70703-1.6719 1.1055-2.6719 1.1055-1.0039 0-1.9648-0.39844-2.6758-1.1055-0.70703-0.71094-1.1055-1.6719-1.1055-2.6758 0-1 0.39844-1.9609 1.1055-2.6719zm3.5664 0-1.7812 1.7812c-0.23828 0.23828-0.37109 0.55859-0.37109 0.89062 0 0.33594 0.13281 0.65625 0.37109 0.89062v0c0.23438 0.23828 0.55469 0.37109 0.89062 0.37109 0.33203 0 0.65234-0.13281 0.89062-0.37109l1.7812-1.7812zm5.3398-1.7812c0.23828-0.23438 0.37109-0.55469 0.37109-0.88672 0-0.33594-0.13281-0.65625-0.37109-0.89062 0 0-0.55469-0.37109-0.89063-0.37109-0.33203 0-0.65234 0.13281-0.89062 0.37109l-1.7773 1.7773 1.7773 1.7812zm38.633-19.629c-4.8633 0-8.8164 3.9492-8.8164 8.8164s3.9531 8.8164 8.8164 8.8164c4.8672 0 8.8164-3.9492 8.8164-8.8164s-3.9492-8.8164-8.8164-8.8164zm6.1719 10.074h-12.344c0.58594 2.875 3.1289 5.0391 6.1719 5.0391 3.0469 0 5.5898-2.1641 6.1719-5.0391zm-28.969 0h-9.3203v4.1953c0.92578 0.53906 2.0039 0.84375 3.1484 0.84375 3.0469 0 5.5898-2.1641 6.1719-5.0391zm-5.543-7.5234c-0.007812 0.99219-0.40234 1.9375-1.1055 2.6406-0.70703 0.70703-1.668 1.1055-2.6719 1.1055v1.2617h9.3203c-0.54297-2.6758-2.7812-4.7344-5.543-5.0078zm34.512 5.0078c-0.58203-2.875-3.125-5.0391-6.1719-5.0391-3.043 0-5.5859 2.1641-6.1719 5.0391zm-38.289-6.3008h-20.152c-0.33203 0-0.65625 0.13281-0.89062 0.37109-0.23828 0.23438-0.36719 0.55469-0.36719 0.89062 0 0.33203 0.12891 0.65234 0.36719 0.89062 0.23438 0.23438 0.55859 0.36719 0.89062 0.36719h20.152c0.33594 0 0.65625-0.13281 0.89063-0.36719 0.23828-0.23828 0.37109-0.55859 0.37109-0.89062 0-0.33594-0.13281-0.65625-0.37109-0.89062-0.23438-0.23828-0.55469-0.37109-0.89063-0.37109zm-2.5195-6.2969c0-0.69531-0.5625-1.2578-1.2578-1.2578h-12.598c-0.69531 0-1.2578 0.5625-1.2578 1.2578v3.7812h15.113zm34.637-16.371c-4.8633 0-8.8164 3.9492-8.8164 8.8164 0 4.8633 3.9531 8.8164 8.8164 8.8164 4.8672 0 8.8164-3.9531 8.8164-8.8164 0-4.8672-3.9492-8.8164-8.8164-8.8164zm-22.797 10.074h-12.344c0.58594 2.8711 3.1289 5.0391 6.1719 5.0391 3.0469 0 5.5898-2.168 6.1719-5.0391zm28.969 0h-12.344c0.58594 2.8711 3.1289 5.0391 6.1719 5.0391 3.0469 0 5.5898-2.168 6.1719-5.0391zm0-2.5195c-0.58203-2.8711-3.125-5.0391-6.1719-5.0391-3.043 0-5.5859 2.168-6.1719 5.0391zm-28.969 0c-0.58203-2.8711-3.125-5.0391-6.1719-5.0391-3.043 0-5.5859 2.168-6.1719 5.0391z" fill="#000000" fill-rule="evenodd"/>
</svg>