<?xml version="1.0" encoding="UTF-8"?>
<svg width="128pt" height="128pt" version="1.1" viewBox="0 0 128 128" xmlns="http://www.w3.org/2000/svg">
 <path d="m108.29 15.105c-0.76953-0.51172-1.6641-0.76953-2.5586-0.51172-9.3438 2.4336-16.383 0.64062-23.809-1.1523-7.6797-1.9219-15.488-3.8398-25.602-1.1523v-6.0156c0-1.6641-1.4062-3.0703-3.0703-3.0703s-3.0703 1.4062-3.0703 3.0703v95.488c-14.719 0.89453-27.391 8.4492-31.488 18.945-0.38281 0.89453-0.25781 1.9219 0.38281 2.8164 0.51172 0.76953 1.5352 1.2812 2.5586 1.2812h63.23c1.0234 0 1.9219-0.51172 2.5586-1.2812 0.51172-0.76953 0.64062-1.9219 0.38281-2.8164-4.0938-10.5-16.766-18.051-31.484-18.945v-44.289c9.3438-3.0703 16.512-1.2812 24.062 0.64062 5.1211 1.2812 10.238 2.5586 16.129 2.5586 3.3281 0 6.7852-0.38281 10.625-1.4062 1.2812-0.38281 2.3047-1.5352 2.3047-2.9453v-38.785c0-1.0234-0.38672-1.918-1.1523-2.4297zm-28.547 103.68h-52.988c4.9922-6.6562 15.105-11.008 26.496-11.008 11.262-0.12891 21.504 4.3516 26.492 11.008zm23.684-64.898c-8.1914 1.6641-14.719 0-21.504-1.6641-7.6797-1.9219-15.488-3.8398-25.602-1.1523v-32.383c9.3438-3.0703 16.512-1.2812 24.062 0.64062 6.9102 1.793 14.078 3.457 23.039 2.0469z"/>
</svg>
