<?xml version="1.0" encoding="UTF-8"?>
<svg width="128pt" height="128pt" version="1.1" viewBox="0 0 128 128" xmlns="http://www.w3.org/2000/svg">
 <g>
  <path d="m81.172 54.828c0.75781 0.75781 1.7773 1.1719 2.8281 1.1719 0.21094 0 0.42969-0.015625 0.64062-0.050781 1.2695-0.20703 2.3594-1.0117 2.9375-2.1602l4-8c0.98828-1.9766 0.1875-4.3789-1.7891-5.3672-1.9805-0.98438-4.3789-0.1875-5.3672 1.7891l-1.5156 3.0352-0.074219-0.074219c-1.5625-1.5625-4.0938-1.5625-5.6562 0s-1.5625 4.0938 0 5.6562z"/>
  <path d="m119.07 81.438-18.523-22.227c2.1758-3.1992 3.4531-7.0586 3.4531-11.211 0-9.6836-6.9258-17.777-16.078-19.605 0.015625-0.13281 0.078125-0.25391 0.078125-0.39453v-16c0-2.2109-1.793-4-4-4h-72c-2.207 0-4 1.7891-4 4v104c0 2.2109 1.793 4 4 4h72c2.207 0 4-1.7891 4-4v-36c0-2.2109-1.793-4-4-4s-4 1.7891-4 4v32h-64v-96h12.035c0 1.0391 0.36719 2.0625 1.1367 2.8281l8 8c0.75 0.75 1.7695 1.1719 2.8281 1.1719h16c1.0586 0 2.0781-0.42188 2.8281-1.1719l8-8c0.76562-0.76562 1.1328-1.7891 1.1367-2.8281h12.035v12c0 0.14062 0.0625 0.26172 0.078125 0.39453-9.1523 1.8281-16.078 9.9219-16.078 19.605 0 4.1523 1.2773 8.0117 3.4531 11.211l-18.523 22.227c-0.99609 1.1953-1.207 2.8555-0.55078 4.2578 0.65625 1.4062 2.0703 2.3047 3.6211 2.3047h9.5273l2.8945 5.7891c0.67969 1.3594 2.0664 2.2109 3.5781 2.2109h0.11719c1.5547-0.046875 2.9453-0.99219 3.5586-2.4258l11.016-25.707c0.44141 0.027343 0.85938 0.13281 1.3086 0.13281s0.86719-0.10547 1.3086-0.13281l11.016 25.707c0.61328 1.4336 2 2.3789 3.5586 2.4258h0.11719c1.5117 0 2.8984-0.85156 3.5781-2.2109l2.8945-5.7891h9.5273c1.5508 0 2.9648-0.89844 3.625-2.3047 0.65625-1.4023 0.44141-3.0625-0.55469-4.2578zm-35.07-45.438c6.6172 0 12 5.3828 12 12s-5.3828 12-12 12-12-5.3828-12-12 5.3828-12 12-12zm-16.281 46.496-0.14453-0.28516c-0.67578-1.3555-2.0586-2.2109-3.5742-2.2109h-3.4609l12.676-15.207c0.53906 0.34766 1.125 0.62891 1.6992 0.92578zm36.281-2.4961c-1.5156 0-2.8984 0.85547-3.5781 2.2109l-0.14453 0.28516-7.1914-16.781c0.57422-0.29688 1.1602-0.57422 1.6992-0.92578l12.676 15.211z"/>
  <path d="m36 40c0 4.418-3.582 8-8 8s-8-3.582-8-8 3.582-8 8-8 8 3.582 8 8"/>
  <path d="m36 68c0 4.418-3.582 8-8 8s-8-3.582-8-8 3.582-8 8-8 8 3.582 8 8"/>
  <path d="m36 96c0 4.418-3.582 8-8 8s-8-3.582-8-8 3.582-8 8-8 8 3.582 8 8"/>
  <path d="m44 44h12c2.207 0 4-1.7891 4-4s-1.793-4-4-4h-12c-2.207 0-4 1.7891-4 4s1.793 4 4 4z"/>
  <path d="m44 72h8c2.207 0 4-1.7891 4-4s-1.793-4-4-4h-8c-2.207 0-4 1.7891-4 4s1.793 4 4 4z"/>
  <path d="m44 100h12c2.207 0 4-1.7891 4-4s-1.793-4-4-4h-12c-2.207 0-4 1.7891-4 4s1.793 4 4 4z"/>
 </g>
</svg>
