<svg width="128pt" height="128pt" version="1.1" viewBox="0 0 128 128" xmlns="http://www.w3.org/2000/svg">
 <path d="m67.809 94.539c0 0.84766-0.6875 1.5352-1.5352 1.5352h-21.312c-0.84766 0-1.5352-0.6875-1.5352-1.5352 0-0.84766 0.6875-1.5352 1.5352-1.5352h21.316c0.84766 0 1.5312 0.6875 1.5312 1.5352zm-1.5352 7.918h-21.312c-0.84766 0-1.5352 0.69141-1.5352 1.5391s0.6875 1.5352 1.5352 1.5352h21.316c0.84766 0 1.5352-0.6875 1.5352-1.5352s-0.6875-1.5391-1.5352-1.5391zm-28.23-12.059v0.003906c0.625 0.57031 0.66406 1.543 0.09375 2.1641l-1.9648 2.1445c2.8594 4.7617 1.5586 10.926-2.9805 14.125-4.5391 3.1992-10.781 2.3555-14.305-1.9375-3.5234-4.293-3.1367-10.578 0.88672-14.41 4.0234-3.8281 10.32-3.9023 14.434-0.16797l1.6758-1.8242c0.57031-0.62109 1.5391-0.66406 2.1641-0.09375zm-4.0664 6.707-5.2891 5.7734c-0.50391 0.54688-1.3242 0.65234-1.9492 0.25781l-4.082-2.5742c-0.66016-0.47656-0.83594-1.3828-0.40234-2.0664 0.43359-0.6875 1.3281-0.91797 2.0391-0.52734l2.9961 1.8945 4.8477-5.2891h0.003906c-2.8438-2.5547-7.1602-2.5547-10 0.007812-2.8438 2.5586-3.293 6.8477-1.0469 9.9414 2.2461 3.0977 6.4648 3.9961 9.7773 2.0898s4.6562-6.0078 3.1055-9.5039zm10.98-27.164 18.355 0.003906c0.84766 0 1.5352-0.6875 1.5352-1.5352s-0.6875-1.5352-1.5352-1.5352h-18.352c-0.84766 0-1.5352 0.6875-1.5352 1.5352s0.6875 1.5352 1.5352 1.5352zm21.316 6.3867-21.312 0.003906c-0.84766 0-1.5352 0.6875-1.5352 1.5352 0 0.84766 0.6875 1.5352 1.5352 1.5352h21.316c0.84766 0 1.5352-0.6875 1.5352-1.5352 0-0.84766-0.6875-1.5352-1.5352-1.5352zm-28.227-12.055c0.62109 0.57422 0.66406 1.543 0.09375 2.168l-1.9648 2.1445c2.8555 4.7578 1.5547 10.918-2.9805 14.117-4.5391 3.1992-10.777 2.3516-14.301-1.9375-3.5234-4.293-3.1367-10.574 0.88672-14.402s10.316-3.9023 14.43-0.17188l1.6719-1.8242c0.57031-0.62109 1.5391-0.66406 2.1641-0.09375zm-4.0664 6.707-5.2891 5.7734h-0.003906c-0.5 0.54297-1.3203 0.65234-1.9492 0.25391l-4.082-2.5742c-0.66016-0.47266-0.83594-1.3789-0.40234-2.0664s1.3281-0.91797 2.0391-0.52344l2.9961 1.8945 4.8477-5.2891h0.003906c-2.8438-2.5586-7.1602-2.5547-10 0.003906-2.8438 2.5586-3.293 6.8477-1.0469 9.9453 2.2461 3.0938 6.4648 3.9961 9.7773 2.0859 3.3125-1.9062 4.6562-6.0078 3.1055-9.5039zm32.297-30.227h-21.316c-0.42578-0.027344-0.83984 0.12109-1.1523 0.41016-0.30859 0.29297-0.48438 0.69531-0.48438 1.1211 0 0.42578 0.17578 0.83203 0.48438 1.1211 0.3125 0.28906 0.72656 0.4375 1.1523 0.41016h21.316c0.42188 0.027344 0.83984-0.12109 1.1484-0.41016 0.30859-0.28906 0.48438-0.69531 0.48438-1.1211 0-0.42578-0.17578-0.82812-0.48438-1.1211-0.30859-0.28906-0.72656-0.4375-1.1484-0.41016zm0 9.4531-21.316-0.003906c-0.84766 0-1.5352 0.6875-1.5352 1.5352 0 0.85156 0.6875 1.5391 1.5352 1.5391h21.316c0.84766 0 1.5352-0.6875 1.5352-1.5391 0-0.84766-0.6875-1.5352-1.5352-1.5352zm-28.23-12.062c0.30078 0.27344 0.48438 0.66016 0.5 1.0664 0.019531 0.41016-0.125 0.80859-0.40234 1.1094l-1.9648 2.1445c2.8633 4.7617 1.5625 10.93-2.9766 14.133-4.543 3.207-10.789 2.3633-14.316-1.9336-3.5273-4.2969-3.1445-10.586 0.88281-14.418 4.0234-3.832 10.328-3.9102 14.445-0.17578l1.6719-1.8242c0.56641-0.62109 1.5352-0.66797 2.1602-0.10156zm-4.0664 6.707-5.2891 5.7734-0.003906-0.003906c-0.5 0.54297-1.3203 0.65234-1.9492 0.25781l-4.082-2.5703c-0.66406-0.47266-0.84375-1.3828-0.41016-2.0742 0.4375-0.6875 1.3359-0.91797 2.0469-0.51953l2.9961 1.8945 4.8477-5.2891h0.003906c-2.8438-2.5508-7.1562-2.5469-9.9922 0.007813-2.8398 2.5586-3.2891 6.8477-1.0469 9.9414 2.2461 3.0898 6.4609 3.9883 9.7734 2.082s4.6484-6.0039 3.1016-9.4961zm76.801 18.613h-0.003906c-0.011719 4.1992-1.6914 8.2188-4.6719 11.18-2.9766 2.9609-7.0078 4.6172-11.207 4.6094-4.1992-0.011718-8.2227-1.6875-11.184-4.6602-2.9648-2.9766-4.625-7.0039-4.6211-11.203s1.6758-8.2266 4.6484-11.191c2.9727-2.9688 7-4.6328 11.199-4.6328 4.207 0.011719 8.2383 1.6953 11.207 4.6758 2.9688 2.9805 4.6367 7.0156 4.6328 11.227zm-3.0703 0h-0.003907c-0.023437-5.1641-3.1523-9.8047-7.9258-11.766-4.7773-1.957-10.266-0.85156-13.906 2.8086-3.6406 3.6562-4.7266 9.1484-2.7422 13.918 1.9805 4.7656 6.6328 7.8711 11.797 7.8711 7.0703-0.015625 12.793-5.7578 12.789-12.828zm13.816 5.4766c0.17188 0.53906 0.027344 1.1289-0.36719 1.5352l-3.8906 3.957-0.67188 5.4297c-0.070312 0.57422-0.46094 1.0586-1.0078 1.2539l-2.8047 1 5.3633 20.098h0.003906c0.15625 0.59766-0.058594 1.2305-0.55078 1.6055-0.48828 0.375-1.1562 0.42188-1.6953 0.11719l-7.1328-4.0977-4.1367 7.1367c-0.27734 0.47266-0.78125 0.76563-1.3281 0.76563-0.066406 0.003906-0.13672-0.003907-0.20312-0.011719-0.61328-0.082031-1.1211-0.52344-1.2773-1.125l-4.5039-16.871-0.91797 0.55078 0.003906 25.965c-0.003906 2.6602-2.1602 4.8125-4.8164 4.8164h-80.379c-2.6562-0.003906-4.8125-2.1562-4.8164-4.8164v-90.93c0.003906-0.16016 0.03125-0.32031 0.085937-0.47266 0.007813-0.023437 0.011719-0.046875 0.019531-0.066406 0.054688-0.14453 0.12891-0.27734 0.22656-0.39844 0.007812-0.011718 0.011719-0.027343 0.023437-0.039062l13.02-15.77c0.28906-0.35156 0.72266-0.55469 1.1797-0.55469h70.641c2.6562 0.003907 4.8125 2.1562 4.8164 4.8164v23.82l4.2227 2.5312 5.5195-0.51953v0.003906c0.57812-0.0625 1.1406 0.21484 1.4414 0.71094l2.8984 4.625 5.1055 1.8164c0.54688 0.19531 0.9375 0.67969 1.0078 1.2539l0.67188 5.4297 3.8906 3.9492v0.003907c0.39453 0.40625 0.53516 0.99609 0.36719 1.5352l-1.7422 5.4727zm-110.34-45.152h6.8789c0.96484 0 1.7461-0.78516 1.75-1.75v-8.7031zm82.156 92.461v-26.039l-0.78906-0.47266-4.5 16.867c-0.16406 0.59375-0.66797 1.0391-1.2812 1.1172-0.61328 0.082032-1.2148-0.21094-1.5273-0.74609l-4.1367-7.1367-7.1328 4.0977h-0.003906c-0.53516 0.30469-1.2031 0.25781-1.6953-0.11719-0.48828-0.37891-0.70703-1.0117-0.54688-1.6094l5.3633-20.098-2.8047-1v0.003907c-0.54687-0.19531-0.9375-0.67969-1.0078-1.2539l-0.67188-5.4297-3.8867-3.9492v-0.003906c-0.39844-0.40625-0.53906-0.99609-0.37109-1.5352l1.7461-5.4727-1.7461-5.4766c-0.16797-0.54297-0.027343-1.1328 0.36719-1.5352l3.8867-3.9492 0.67188-5.4297 0.003906-0.003906c0.070312-0.57422 0.46094-1.0586 1.0078-1.2539l5.1055-1.8164 2.8984-4.625v-0.003906c0.30078-0.49219 0.86328-0.76953 1.4414-0.71094l5.5156 0.51953 4.0977-2.457v-23.902c0-0.96484-0.78516-1.75-1.75-1.75h-68.715v10.961c-0.003906 2.6602-2.1602 4.8125-4.8164 4.8164h-8.5938v89.395c0 0.96484 0.78516 1.75 1.75 1.75h80.371c0.96484 0 1.75-0.78516 1.75-1.75zm-17.703-16.801 5.2656-3.0273c0.73047-0.41797 1.6641-0.16797 2.0859 0.5625l3.0508 5.2578 3.7734-14.148-0.56641-0.33984-5.5195 0.51953h0.003906c-0.57812 0.054687-1.1367-0.21875-1.4414-0.71094l-2.4414-3.8945zm38.602 0-4.2148-15.781-2.4414 3.8945c-0.30078 0.49219-0.86328 0.76953-1.4414 0.71094l-5.5156-0.51953-0.56641 0.33984 3.7773 14.148 3.0508-5.2578h-0.003906c0.42578-0.73047 1.3594-0.98047 2.0898-0.5625zm2.4727-36.445 1.6133-5.0586-3.6055-3.6602h-0.003906c-0.23438-0.24219-0.38672-0.55469-0.42578-0.89062l-0.62109-5.0117-4.7148-1.6797v0.003906c-0.32422-0.11719-0.60156-0.33594-0.78516-0.62891l-2.6797-4.2734-5.0781 0.48047c-0.32422 0.027344-0.65234-0.046875-0.93359-0.21484l-4.5391-2.7266-4.5391 2.7266h-0.003906c-0.27734 0.17188-0.60547 0.24609-0.93359 0.21484l-5.0781-0.48047-2.6797 4.2734c-0.18359 0.29297-0.45703 0.51562-0.78516 0.63281l-4.7148 1.6719-0.61719 5.0078v0.003906c-0.039063 0.33203-0.19141 0.64453-0.42969 0.88672l-3.6094 3.6641 1.6133 5.0586c0.097657 0.30078 0.097657 0.625 0 0.92969l-1.6133 5.0586 3.6094 3.6602c0.23828 0.24219 0.39062 0.55078 0.42969 0.88672l0.61719 5.0078 4.7148 1.6797c0.32812 0.11328 0.60156 0.33594 0.78516 0.62891l2.6797 4.2734 5.0781-0.48047 0.003906 0.003906c0.046875-0.003906 0.09375-0.007813 0.14062-0.007813 0.27734 0 0.55078 0.078125 0.78906 0.21875l4.5391 2.7266 4.543-2.7266c0.28125-0.16797 0.60938-0.24219 0.93359-0.21094l5.0781 0.48047 2.6797-4.2734v-0.003906c0.18359-0.29297 0.46094-0.51172 0.78516-0.62891l4.7148-1.6797 0.61719-5.0078h0.003907c0.039062-0.33594 0.19141-0.64453 0.42578-0.88672l3.6055-3.6602-1.6133-5.0586h0.003906c-0.097656-0.30078-0.097656-0.62891 0-0.92969zm-15.23-5.4414h-0.003906c-0.70312-0.46875-1.6562-0.27734-2.125 0.42578l-5.2773 7.9219-5.2969-3.5312c-0.70312-0.40625-1.6016-0.19922-2.0547 0.47656-0.44922 0.67578-0.29297 1.5859 0.35547 2.0781l6.5703 4.3789c0.33594 0.22656 0.75 0.30859 1.1484 0.22656 0.39844-0.078124 0.75-0.3125 0.97656-0.65234l6.1328-9.1992c0.46484-0.70312 0.27734-1.6523-0.42578-2.125z" fill="#000000"/>
</svg>