<svg width="128pt" height="128pt" version="1.1" viewBox="0 0 128 128" xmlns="http://www.w3.org/2000/svg">
 <path d="m44.223 34.207c-0.82812-1.0547 0.77734-2.3359 1.6055-1.2539l3.4141 4.3672 7.8047-10.141c0.82812-1.0547 2.4609 0.19922 1.6328 1.2539l-8.7852 11.344c-0.45312 0.35156-1.1055 0.27734-1.457-0.17578zm7.2266-15.207c7.9297 0 14.383 6.4492 14.383 14.383 0 7.9297-6.4492 14.383-14.383 14.383-7.9297 0-14.383-6.4492-14.383-14.383 0.027344-7.9336 6.4531-14.383 14.383-14.383zm8.7344 5.6719c-4.8203-4.8203-12.625-4.8203-17.418 0-4.8203 4.8203-4.8203 12.625 0 17.418 4.8203 4.8203 12.625 4.8203 17.418 0 4.7969-4.793 4.7969-12.602 0-17.418zm2.3867-14.207 1.6055 2.8359c0.50391 0.87891 1.2539 1.4062 2.2344 1.6055l3.2109 0.62891c2.7344 0.52734 4.6172 3.0625 4.293 5.8477l-0.375 3.2383c-0.125 1.0039 0.17578 1.8828 0.87891 2.6094l2.2344 2.3828c1.9062 2.0312 1.9336 5.1953 0.050781 7.2539l-2.207 2.4102c-0.67578 0.75391-0.95312 1.6328-0.82812 2.6367l0.40234 3.2383c0.25 2.0586-0.70312 4.0664-2.4336 5.1719l6.7773 13.074c0.47656 0.87891-0.40234 1.832-1.2812 1.457l-9.0586-3.7656-3.0117 7.6562c-0.32812 0.82812-1.457 0.87891-1.8828 0.10156l-5.1211-9.9141c-2.4609-0.050782-4.668-2.1602-6.4766-2.1328-1.9062 0-4.1172 2.3086-6.7773 2.207l-5.0938 9.8398c-0.40234 0.77734-1.5547 0.72656-1.8828-0.10156l-3.0117-7.6562-9.0586 3.7656c-0.87891 0.35156-1.7578-0.57812-1.2812-1.457l6.7266-13c-1.582-1.1055-2.4844-3.0117-2.2578-4.9688l0.41797-3.2656c0.125-1.0039-0.17578-1.8828-0.87891-2.6367l-2.2344-2.3828c-1.9062-2.0312-1.9336-5.1953-0.050781-7.2539l2.207-2.4102c0.67578-0.75391 0.95312-1.6328 0.82812-2.6367l-0.37109-3.2109c-0.35156-2.7617 1.5078-5.3203 4.2422-5.8984l3.2109-0.65234c0.98047-0.19922 1.7305-0.75391 2.207-1.6328l1.582-2.8594c1.3555-2.4609 4.3438-3.4375 6.9023-2.2852l2.9609 1.3555c0.92969 0.42578 1.8555 0.42578 2.7617-0.023437l2.9609-1.3789c2.5117-1.1797 5.4961-0.22656 6.8789 2.207zm-1.7812 47.789c-0.19922 0.125-0.40234 0.22656-0.62891 0.30078l3.8164 7.3555 2.5586-6.5508c0.19922-0.52734 0.80469-0.77734 1.332-0.57812l7.4531 3.0859-5.5977-10.816-3.0859 0.62891c-0.98047 0.19922-1.7305 0.75391-2.207 1.6328-0.30078 0.55078-1.457 2.8359-2.082 3.6133-0.45703 0.57422-0.95703 0.97656-1.5586 1.3281zm-20.355-1.7578c-2.9102-4.7422-1.3047-4.1172-7.1523-5.2188-0.050781 0-0.125-0.023438-0.17578-0.023438l-5.5234 10.668 7.4531-3.0859c0.52734-0.19922 1.1289 0.050781 1.332 0.57812l2.5586 6.5508 3.8164-7.3789c-0.95313-0.48438-1.7305-1.1875-2.3086-2.0898zm21.961-42.191-1.6055-2.8359c-0.85156-1.5078-2.6836-2.082-4.2656-1.3555l-2.9609 1.3789c-1.457 0.67578-3.0117 0.70312-4.4688 0.023437l-2.9609-1.3555c-1.5547-0.72656-3.4141-0.10156-4.2422 1.4062l-1.582 2.8594c-0.77734 1.4062-2.0312 2.3359-3.6133 2.6602l-3.1875 0.65234c-1.6797 0.35156-2.8125 1.9062-2.6094 3.6406l0.40234 3.2383c0.57812 4.668-4.4414 5.6484-4.4414 8.9102 0 0.80469 0.30078 1.6055 0.87891 2.2344l2.2344 2.3828c1.1055 1.1797 1.582 2.6367 1.4062 4.2422l-0.375 3.2383c-0.19922 1.707 0.95312 3.2891 2.6367 3.6133l3.2109 0.60156c1.582 0.30078 2.8359 1.2031 3.6406 2.6094l1.832 3.1641c0.92969 1.2539 2.6094 1.707 4.0391 1.0273l2.9609-1.3789c1.457-0.67578 3.0117-0.67578 4.4688-0.023438l2.9609 1.3555c1.582 0.72656 3.4141 0.074219 4.2422-1.4062l1.582-2.8594c0.77734-1.4062 2.0312-2.3359 3.6133-2.6602 0.70312-0.15234 2.8867-0.50391 3.7148-0.80469 1.3789-0.47656 2.2852-1.957 2.082-3.4883l-0.40234-3.2383c-0.57813-4.6914 4.4414-5.6484 4.4414-8.9102 0-0.80469-0.30078-1.6055-0.87891-2.2344l-2.2344-2.3828c-1.1055-1.1797-1.582-2.6367-1.4062-4.2422l0.375-3.2383c0.19922-1.707-0.95312-3.2891-2.6367-3.5898l-3.2109-0.62891c-1.582-0.29688-2.8398-1.1992-3.6406-2.6055zm6.6484 58.832h18.172c0.57812 0 1.0273 0.45312 1.0273 1.0273v10.289c0 0.57812-0.45313 1.0273-1.0273 1.0273h-18.172c-0.57812 0-1.0273-0.45312-1.0273-1.0273v-10.289c0-0.57812 0.45312-1.0273 1.0273-1.0273zm17.145 2.0586h-16.113v8.2305h16.113zm-67.766 8.1797c-1.3555 0-1.3555-2.0586 0-2.0586h6.5508c1.3555 0 1.3555 2.0586 0 2.0586zm0-6.0742c-1.3555 0-1.3555-2.0586 0-2.0586h40.582c1.3555 0 1.3555 2.0586 0 2.0586zm12.574 6.0742c-1.3555 0-1.3555-2.0586 0-2.0586h27.984c1.3555 0 1.3555 2.0586 0 2.0586zm28.008 30.645c1.3555 0 1.3555 2.0586 0 2.0586h-3.2617c-1.3555 0-1.3555-2.0586 0-2.0586zm0-6.0742c1.3555 0 1.3555 2.0586 0 2.0586h-20.277c-1.3555 0-1.3555-2.0586 0-2.0586zm-10.992 6.0742c1.3555 0 1.3555 2.0586 0 2.0586h-9.3125c-1.3555 0-1.3555-2.0586 0-2.0586zm-29.59-20.379c-1.3555 0-1.3555-2.0586 0-2.0586h40.582c1.3555 0 1.3555 2.0586 0 2.0586zm21.234 6.0977c-1.3555 0-1.3555-2.0586 0-2.0586h19.352c1.3555 0 1.3555 2.0586 0 2.0586zm72.281 17.293 5.8711-23.465h-11.723zm4.5938-9.8867-3.5898 14.355c-0.25 1.0547-1.7305 1.0547-1.9844 0.023438l-6.9766-27.934c-0.55078 0-1.582 0.023437-1.582-1.0273v-70.777c0-1.1289 1.1562-1.0273 1.7305-1.0273 0-3.4375-0.375-6.1484 2.3086-8.8359 4.9688-4.9688 13.379-1.3555 13.379 5.5469v3.2891c0.57812 0 1.707-0.10156 1.707 1.0273v70.777c0 1.0781-1.0273 1.0273-1.582 1.0273zm1.1797-86.414v-3.2891c0-5.0703-6.1992-7.7539-9.8633-4.0898-1.0547 1.0547-1.707 2.4844-1.707 4.0898v3.2891zm1.7305 2.0586h-15.008v68.719h15.008zm-50.398 83.051h18.172c0.57812 0 1.0273 0.45312 1.0273 1.0273v10.289c0 0.57812-0.45313 1.0273-1.0273 1.0273h-18.172c-0.57812 0-1.0273-0.45312-1.0273-1.0273v-10.289c0-0.57813 0.45312-1.0273 1.0273-1.0273zm17.145 2.0547h-16.113v8.2305h16.113zm-17.145-18.395h18.172c0.57812 0 1.0273 0.45312 1.0273 1.0273v10.289c0 0.55078-0.45313 1.0273-1.0273 1.0273h-18.172c-0.57812 0-1.0273-0.45312-1.0273-1.0273v-10.289c0-0.57422 0.45312-1.0273 1.0273-1.0273zm17.145 2.0312h-16.113v8.2305h16.113zm-77.629 7.7812h24.344c0.57812 0 1.0273 0.45312 1.0273 1.0273v24.344l60.438 0.003906v-121.38h-85.809zm23.316 2.0586h-21.859l21.859 21.859zm-24.344-100.12h87.844c0.57812 0 1.0273 0.45312 1.0273 1.0273v123.43c0 0.57812-0.45312 1.0273-1.0273 1.0273l-62.473 0.003906c-0.45312 0-0.72656-0.30078-0.72656-0.30078l-25.375-25.375c-0.19922-0.19922-0.30078-0.47656-0.30078-0.72656v-98.059c0-0.57812 0.47656-1.0312 1.0312-1.0312z" fill="#000000"/>
</svg>