<?xml version="1.0" encoding="UTF-8"?>
<svg width="128pt" height="128pt" version="1.1" viewBox="0 0 128 128" xmlns="http://www.w3.org/2000/svg">
 <g>
  <path d="m40 48c0-6.6172-5.3828-12-12-12s-12 5.3828-12 12 5.3828 12 12 12 12-5.3828 12-12zm-12 4c-2.2031 0-4-1.7969-4-4s1.7969-4 4-4 4 1.7969 4 4-1.7969 4-4 4z"/>
  <path d="m36 60h-16c-6.6172 0-12 5.3828-12 12v8c0 2.2109 1.7891 4 4 4h32c2.2109 0 4-1.7891 4-4v-8c0-6.6172-5.3828-12-12-12zm4 16h-24v-4c0-2.2031 1.7969-4 4-4h16c2.2031 0 4 1.7969 4 4z"/>
  <path d="m92 48c-13.496 0-24.156 4.9258-27.137 11.961-3.0703-0.007813-7.2305 0.023437-8.8984 0.039062-2.2109 0.019531-3.9844 1.8281-3.9648 4.0352 0.019531 2.1992 1.8086 3.9648 4 3.9648h0.035156c3.1172-0.027344 6.4609-0.042969 8.793-0.042969 2.9336 7.0781 13.621 12.043 27.172 12.043 15.965 0 28-6.8789 28-16s-12.035-16-28-16zm0 24c-12.211 0-20-4.7383-20-8s7.7891-8 20-8 20 4.7383 20 8-7.7891 8-20 8z"/>
  <path d="m92 88c-10.215 0-18.801 2.8242-23.676 7.2422l-13.922-10.441c-1.7695-1.3281-4.2773-0.96484-5.5977 0.79688-1.3281 1.7656-0.96875 4.2773 0.79687 5.5977l14.586 10.938c-0.11719 0.61328-0.1875 1.2344-0.1875 1.8672 0 9.1211 12.035 16 28 16s28-6.8789 28-16-12.035-16-28-16zm0 24c-12.211 0-20-4.7383-20-8s7.7891-8 20-8 20 4.7383 20 8-7.7891 8-20 8z"/>
  <path d="m52.004 44c0.83594 0 1.6758-0.25781 2.3984-0.80078l13.922-10.441c4.875 4.418 13.461 7.2422 23.676 7.2422 15.965 0 28-6.8789 28-16s-12.035-16-28-16-28 6.8789-28 16c0 0.63281 0.070312 1.2539 0.18359 1.8633l-14.586 10.938c-1.7656 1.3242-2.125 3.832-0.79688 5.5977 0.78516 1.0469 1.9844 1.6016 3.2031 1.6016zm39.996-28c12.211 0 20 4.7383 20 8s-7.7891 8-20 8-20-4.7383-20-8 7.7891-8 20-8z"/>
 </g>
</svg>
