<?xml version="1.0" encoding="UTF-8"?>
<svg width="128pt" height="128pt" version="1.1" viewBox="0 0 128 128" xmlns="http://www.w3.org/2000/svg">
 <g>
  <path d="m40.535 85.332v8.5352c0 3.5352 2.8633 6.3984 6.3984 6.3984h34.133c3.5352 0 6.3984-2.8633 6.3984-6.3984v-8.5352c-0.003906-4.7266-1.4414-9.3438-4.1133-13.242-2.6758-3.8984-6.4648-6.9023-10.871-8.6133 3.5195-2.4258 5.8281-6.2461 6.3438-10.488 0.51562-4.2422-0.8125-8.5039-3.6445-11.703-2.8359-3.2031-6.9062-5.0312-11.18-5.0312s-8.3438 1.8281-11.18 5.0312c-2.832 3.1992-4.1602 7.4609-3.6445 11.703 0.51562 4.2422 2.8242 8.0625 6.3438 10.488-4.4062 1.7109-8.1953 4.7148-10.871 8.6133-2.6719 3.8984-4.1094 8.5156-4.1133 13.242zm12.801-34.133h-0.003907c0-4.3125 2.6016-8.2031 6.5859-9.8555 3.9844-1.6484 8.5742-0.73828 11.625 2.3125s3.9609 7.6406 2.3125 11.625c-1.6523 3.9883-5.543 6.5859-9.8555 6.5859-5.8867-0.007813-10.66-4.7773-10.668-10.668zm10.668 14.934h-0.003906c5.0898 0.007813 9.9727 2.0312 13.57 5.6289 3.5977 3.6016 5.625 8.4805 5.6289 13.57v8.5352c0 0.56641-0.22266 1.1094-0.625 1.5078-0.39844 0.39844-0.94141 0.625-1.5078 0.625h-34.133c-1.1797 0-2.1328-0.95703-2.1328-2.1328v-8.5352c0.003907-5.0898 2.0312-9.9688 5.6289-13.57 3.5977-3.5977 8.4805-5.6211 13.57-5.6289z"/>
  <path d="m123.73 106.67h-12.801c-2.3555 0-4.2656 1.9102-4.2656 4.2656v12.801c0 1.1289 0.44922 2.2148 1.25 3.0156 0.79688 0.80078 1.8828 1.25 3.0156 1.25h12.801c1.1289 0 2.2148-0.44922 3.0156-1.25s1.25-1.8867 1.25-3.0156v-12.801c0-1.1328-0.44922-2.2188-1.25-3.0156-0.80078-0.80078-1.8867-1.25-3.0156-1.25zm-12.801 17.066v-12.801h12.801v12.801z"/>
  <path d="m42.043 109.43c-0.83984-0.80859-2.168-0.79688-2.9922 0.023438-0.82422 0.82422-0.83594 2.1562-0.027343 2.9922l2.7617 2.7578h-20.453v-4.2656c0-1.1328-0.44922-2.2188-1.25-3.0156-0.79688-0.80078-1.8828-1.25-3.0156-1.25h-12.801c-2.3555 0-4.2656 1.9102-4.2656 4.2656v12.801c0 1.1289 0.44922 2.2148 1.25 3.0156s1.8867 1.25 3.0156 1.25h12.801c1.1328 0 2.2188-0.44922 3.0156-1.25 0.80078-0.80078 1.25-1.8867 1.25-3.0156v-4.2695h20.449l-2.7578 2.7578v0.003906c-0.41016 0.39453-0.64453 0.94141-0.64844 1.5156-0.007812 0.57031 0.21875 1.1211 0.625 1.5273 0.40234 0.40234 0.95312 0.62891 1.5273 0.625 0.57031-0.007812 1.1172-0.24219 1.5156-0.65234l6.3984-6.3984v-0.003906c0.83203-0.83203 0.83203-2.1836 0-3.0156zm-37.777 14.309v-12.801h12.801v12.801z"/>
  <path d="m95.375 109.43c-0.83594-0.80859-2.168-0.79688-2.9922 0.023438-0.82031 0.82422-0.83203 2.1562-0.023437 2.9922l2.7578 2.7578h-20.449v-4.2656c0-1.1328-0.44922-2.2188-1.25-3.0156-0.80078-0.80078-1.8867-1.25-3.0195-1.25h-12.797c-2.3594 0-4.2695 1.9102-4.2695 4.2656v12.801c0 1.1289 0.44922 2.2148 1.25 3.0156s1.8867 1.25 3.0195 1.25h12.801-0.003906c1.1328 0 2.2188-0.44922 3.0195-1.25s1.25-1.8867 1.25-3.0156v-4.2695h20.449l-2.7578 2.7578v0.003906c-0.41406 0.39453-0.64844 0.94141-0.65234 1.5156-0.003906 0.57031 0.21875 1.1211 0.625 1.5273 0.40625 0.40234 0.95312 0.62891 1.5273 0.625 0.57031-0.007812 1.1172-0.24219 1.5156-0.65234l6.3984-6.3984v-0.003906c0.83594-0.83203 0.83594-2.1836 0-3.0156zm-37.773 14.309v-12.801h12.801v12.801z"/>
  <path d="m125.87 0h-12.801c-1.1797 0-2.1328 0.95703-2.1328 2.1328 0 1.1797 0.95312 2.1328 2.1328 2.1328h7.418l-31.109 29.289-23.039-15.359-0.003907-0.003906c-1.4062-0.9375-3.2344-0.95703-4.6602-0.046875l-21.426 13.641-17.066-5.6914v0.003906c-1.4492-0.48438-3.043-0.16016-4.1836 0.85156l-18.277 16.258c-0.44531 0.36719-0.72266 0.90234-0.76562 1.4805-0.042969 0.57422 0.14844 1.1445 0.53125 1.5781 0.38672 0.42969 0.92969 0.6875 1.5078 0.71094 0.57422 0.027344 1.1367-0.18359 1.5586-0.58203l18.277-16.246 17.066 5.6914v-0.003906c1.2148 0.40234 2.5469 0.23437 3.6289-0.44922l21.438-13.652 23.039 15.359c1.6523 1.1094 3.8477 0.92188 5.293-0.44141l31.441-29.582v7.8633c0 1.1797 0.95312 2.1328 2.1328 2.1328 1.1758 0 2.1328-0.95312 2.1328-2.1328v-12.801c0-0.56641-0.22656-1.1094-0.625-1.5078s-0.94141-0.625-1.5078-0.625z"/>
 </g>
</svg>
