<?xml version="1.0" encoding="utf-8"?>
<!-- Generator: Adobe Illustrator 27.2.0, SVG Export Plug-In . SVG Version: 6.00 Build 0)  -->
<svg version="1.1"
	 id="svg2" xmlns:rdf="http://www.w3.org/1999/02/22-rdf-syntax-ns#" xmlns:inkscape="http://www.inkscape.org/namespaces/inkscape" xmlns:svg="http://www.w3.org/2000/svg" xmlns:dc="http://purl.org/dc/elements/1.1/" xmlns:cc="http://creativecommons.org/ns#" xmlns:sodipodi="http://sodipodi.sourceforge.net/DTD/sodipodi-0.dtd"
	 xmlns="http://www.w3.org/2000/svg" xmlns:xlink="http://www.w3.org/1999/xlink" x="0px" y="0px" viewBox="0 0 290.8 294.7"
	 style="enable-background:new 0 0 290.8 294.7;" xml:space="preserve">
<style type="text/css">
	.st0{fill:#FFFFFF;}
</style>
<sodipodi:namedview  bordercolor="#666666" borderopacity="1" gridtolerance="10" guidetolerance="10" id="namedview4" inkscape:pageopacity="0" inkscape:pageshadow="2" inkscape:window-height="480" inkscape:window-width="640" objecttolerance="10" pagecolor="#ffffff">
	</sodipodi:namedview>
<g id="g10" transform="matrix(1.3333333,0,0,-1.3333333,0,294.73333)" inkscape:groupmode="layer" inkscape:label="ink_ext_XXXXXX">
	<g id="g12" transform="scale(0.1)">
		<path id="path14" class="st0" d="M1517.1,1351.2l-37.2,27.2l-37.1-27.2l14.1,43.9l-37.7,27.1l46.5-0.1l14.2,44.5l14.3-44.4h46.5
			l-37.8-27.1L1517.1,1351.2z M1466,1158.1l-37.2,27.2l-37.2-27.2l14.2,43.9l-37.7,27.1l46.5-0.1l14.3,44.5l14.3-44.4h46.5
			l-37.7-27.1L1466,1158.1z M1311.5,1727.6l14.1-43.8l-37.1,27.2l-37.2-27.2l14.1,43.8l-37.7,27.2l46.5-0.1l14.2,44.5l14.2-44.4
			h46.6L1311.5,1727.6z M1325.1,1017.1l-37.2,27.1l-37.2-27.1l14.1,43.9l-37.7,27.1l46.5-0.1l14.3,44.4l14.2-44.4h46.5l-37.7-27.1
			L1325.1,1017.1z M1133,966l-37.1,27.1l-37.2-27.1l14.1,43.9l-37.7,27.1l46.5,0l14.2,44.5l14.2-44.4h46.5l-37.8-27.1L1133,966z
			 M1081.6,1806.4l14.2,44.4l14.2-44.4h46.5l-37.8-27.1l14.1-43.9l-37.2,27.1l-37.2-27.1l14.1,43.9l-37.7,27.1L1081.6,1806.4z
			 M940.9,1017.1l-37.1,27.1l-37.2-27.1l14.1,43.9l-37.7,27.1l46.5-0.1l14.2,44.4l14.2-44.4h46.5l-37.7-27.1L940.9,1017.1z
			 M889.2,1754.7l14.2,44.5l14.2-44.4h46.5l-37.7-27.1l14.1-43.8l-37.1,27.1l-37.2-27.1l14.1,43.8l-37.7,27.1L889.2,1754.7z
			 M785.8,1586.6l14.1-43.9l-37.2,27.1l-37.2-27.1l14.1,43.9l-37.7,27.1l46.5-0.1l14.2,44.5l14.2-44.4h46.5L785.8,1586.6z
			 M799.9,1158.1l-37.2,27.2l-37.2-27.2l14.1,43.9L702,1229l46.5-0.1l14.2,44.5L777,1229h46.5l-37.7-27.1L799.9,1158.1z
			 M650.4,1421.7l46.5-0.1l14.2,44.5l14.2-44.4h46.5l-37.7-27.1l14.1-43.8l-37.1,27.1l-37.2-27.1l14.1,43.8L650.4,1421.7z
			 M1414.6,1614.2l14.3,44.5l14.3-44.4h46.5l-37.7-27.1l14.2-43.9l-37.2,27.1l-37.2-27.1l14.2,43.9l-37.7,27.1L1414.6,1614.2z
			 M215.6,1991.3V817.2h1761.1v1174.1H215.6"/>
	</g>
</g>
</svg>
