<?xml version="1.0" encoding="UTF-8"?>
<svg id="Layer_2" data-name="Layer 2" xmlns="http://www.w3.org/2000/svg" viewBox="0 0 234.81 156.54">
  <defs>
    <style>
      .cls-1 {
        fill: #fff;
      }
    </style>
  </defs>
  <g id="svg2">
    <g id="g10">
      <g id="g12">
        <path id="path14" class="cls-1" d="m173.53,85.34l-4.95-3.62-4.95,3.62,1.88-5.85-5.03-3.62h6.2s1.89-5.92,1.89-5.92l1.9,5.92h6.2l-5.03,3.62,1.88,5.85Zm-6.81,25.76l-4.95-3.62-4.95,3.62,1.89-5.85-5.03-3.62h6.19s1.9-5.93,1.9-5.93l1.9,5.93h6.2l-5.03,3.62,1.89,5.85Zm-20.61-75.94l1.88,5.85-4.95-3.62-4.96,3.62,1.88-5.85-5.03-3.62h6.2s1.9-5.92,1.9-5.92l1.89,5.92h6.21l-5.03,3.62Zm1.81,94.74l-4.95-3.62-4.95,3.62,1.88-5.85-5.03-3.62h6.2s1.9-5.92,1.9-5.92l1.89,5.92h6.2l-5.03,3.62,1.89,5.85Zm-25.61,6.81l-4.95-3.62-4.95,3.62,1.88-5.85-5.03-3.61h6.2s1.89-5.93,1.89-5.93l1.9,5.93h6.2l-5.03,3.61,1.89,5.85Zm-6.85-112.05l1.9-5.92,1.9,5.92h6.2l-5.03,3.61,1.89,5.85-4.95-3.62-4.95,3.62,1.89-5.85-5.03-3.61h6.2Zm-18.75,105.25l-4.95-3.62-4.96,3.62,1.88-5.85-5.03-3.62h6.2s1.9-5.92,1.9-5.92l1.9,5.92h6.2l-5.03,3.62,1.88,5.85Zm-6.89-98.35l1.9-5.93,1.9,5.93h6.2l-5.03,3.62,1.88,5.85-4.95-3.61-4.95,3.61,1.88-5.85-5.03-3.62h6.2Zm-13.79,22.42l1.89,5.85-4.95-3.62-4.95,3.62,1.89-5.85-5.03-3.62h6.2s1.9-5.92,1.9-5.92l1.9,5.92h6.2l-5.03,3.62Zm1.89,57.14l-4.95-3.62-4.95,3.62,1.89-5.85-5.03-3.62h6.2s1.9-5.93,1.9-5.93l1.9,5.93h6.2l-5.03,3.62,1.89,5.85Zm-19.94-35.15h6.2s1.9-5.93,1.9-5.93l1.9,5.93h6.2l-5.03,3.62,1.88,5.85-4.95-3.62-4.95,3.62,1.89-5.85-5.03-3.62Zm101.9-25.67l1.9-5.93,1.9,5.92h6.2l-5.03,3.61,1.89,5.85-4.95-3.62-4.95,3.62,1.89-5.85-5.03-3.61h6.19ZM0,0v156.54h234.81V0H0"/>
      </g>
    </g>
  </g>
</svg>