<?xml version="1.0" encoding="UTF-8"?>
<svg id="Layer_2" data-name="Layer 2" xmlns="http://www.w3.org/2000/svg" viewBox="0 0 886.85 82.76">
  <defs>
    <style>
      .cls-1 {
        letter-spacing: -.09em;
      }

      .cls-1, .cls-2, .cls-3, .cls-4, .cls-5, .cls-6, .cls-7, .cls-8, .cls-9, .cls-10 {
        fill: #004494;
      }

      .cls-2 {
        letter-spacing: -.03em;
      }

      .cls-11, .cls-12 {
        fill: #ffd617;
      }

      .cls-4 {
        letter-spacing: -.01em;
      }

      .cls-5 {
        letter-spacing: 0em;
      }

      .cls-13 {
        font-family: BwSeidoRoundDEMO-Bold, 'Bw Seido Round DEMO';
        font-size: 72px;
        font-weight: 700;
      }

      .cls-6 {
        letter-spacing: -.01em;
      }

      .cls-7 {
        letter-spacing: -.01em;
      }

      .cls-8 {
        letter-spacing: 0em;
      }

      .cls-9 {
        letter-spacing: 0em;
      }

      .cls-12, .cls-10 {
        letter-spacing: 0em;
      }
    </style>
  </defs>
  <g id="Layer_1-2" data-name="Layer 1">
    <g>
      <text class="cls-13" transform="translate(82.48 64.62)"><tspan class="cls-10" x="0" y="0">1</tspan><tspan class="cls-12" x="36.79" y="0" xml:space="preserve">   </tspan><tspan class="cls-10" x="81.28" y="0">MG</tspan><tspan class="cls-2" x="200.73" y="0"> </tspan><tspan class="cls-1" x="213.76" y="0">T</tspan><tspan class="cls-8" x="253.36" y="0">ru</tspan><tspan class="cls-7" x="324.86" y="0">s</tspan><tspan class="cls-8" x="363.38" y="0">t </tspan><tspan class="cls-6" x="406.21" y="0">F</tspan><tspan class="cls-4" x="451.5" y="0">r</tspan><tspan class="cls-9" x="478.94" y="0">am</tspan><tspan class="cls-5" x="589.31" y="0">ew</tspan><tspan class="cls-9" x="692.85" y="0">ork</tspan></text>
      <g id="_3" data-name="3">
        <path class="cls-3" d="m35,2.15C15.67,2.15,0,17.82,0,37.15s15.67,35,35,35,35-15.67,35-35S54.33,2.15,35,2.15Zm29.59,19.76c-.54.33-.93.83-1.27,1.37-.57.91-.9,1.94-1.3,2.94-.36.62-.72,1.25-1.09,1.87-.42.53-.9,1.01-1.39,1.47-.5.18-.99.36-1.53.21-.52-.31-1.04-.61-1.56-.92-.51-.71-1.22-.94-2.05-.83-.48.06-.95,0-1.42-.02-.15-.09-.3-.18-.46-.27-.11-.24-.2-.53-.47-.61-.25-.08-.41.19-.62.3-.37.2-.73.19-1.1-.06-.49-.34-1.01-.65-1.52-.96-.66-.39-.81-.36-1.35.25-.61.7-1.31,1.16-2.28.75-.44-.55-.87-1.11-1.31-1.66-.62-1.04-1.23-2.09-1.86-3.12-.18-.3-.31-.65-.64-.84-.38-.62-.99-.9-1.65-1.12-.75-.26-1.53-.26-2.3-.34-.49-.21-.97-.43-1.46-.64-1.29-.81-2.59-1.61-3.72-2.66-.46-.53-.92-1.06-1.38-1.58-.84-1.23-1.5-2.57-2.08-3.94-.02-.1-.05-.19-.07-.29-.25-.97-.5-1.94-.75-2.91-.01-.06-.02-.13-.03-.19-.06-.75-.12-1.51-.19-2.26.06-.34.09-.69,0-1.03.02-.08.04-.16.06-.24,2.29-.5,4.66-.76,7.1-.76,12.92,0,24.12,7.34,29.66,18.09ZM11.6,13.35c.45.19.89.39,1.33.6,2.47,1.16,4.37,2.92,5.84,5.2.11.17.25.35.3.55.26,1.08.85,2.03,1.21,3.07.79,2.29,1.29,4.63,1.14,7.07-.04.61-.14,1.22-.28,1.82-.06.23-.18.42-.31.61-.15.21-.3.42-.44.64-.29.44-.34.91-.13,1.39.45,1.03.9,2.06,1.35,3.09.36.83.73,1.66,1.04,2.51.14.39.06.69-.21.96-.38.39-.82.7-1.32.92-.1.05-.21.09-.32.13-.85.32-.94.47-.81,1.37.05.37.13.74.09,1.12-.04.42-.21.74-.65.85-.27.07-.37.24-.35.51,0,.08,0,.17.02.25.11.64-.2,1.05-.74,1.29-.43.19-.57.5-.59.93-.02.36-.02.73.02,1.09.07.68-.17,1.27-.52,1.82-.25.39-.66.55-1.1.63-.75.13-1.49.04-2.21-.18-1.21-.37-2.42-.73-3.68-.84-1.93-.18-3.78,0-5.51.72-2.05-4.32-3.19-9.15-3.19-14.25,0-9.34,3.84-17.78,10.02-23.83Zm23.33,57.18c-2.63,0-5.19-.31-7.65-.88.04-.04.08-.08.11-.12.39-.36.76-.73,1.09-1.15.36-.4.71-.8.84-1.34.02-.05.05-.11.07-.16.24-.56.48-1.12.86-1.6.38-.36.86-.54,1.32-.78,1.32-.35,1.98-1.22,1.91-2.52-.04-.81-.33-1.54-.76-2.21-.08-.13-.15-.27-.23-.39-.75-1.17-1.66-2.25-1.97-3.65-.1-.66-.06-1.29.23-1.9.02,0,.03-.02.03-.04.32-.44.74-.75,1.29-.83.08,0,.15-.01.23-.02.38.05.76.05,1.13-.01.59-.1.98-.48,1.08-1.07.04-.26.07-.53,0-.8.03-.44.07-.89.33-1.27.16-.14.31-.28.47-.42.2-.09.4-.18.6-.27q.7.16.67-.4c0-.06,0-.12,0-.18.12-.64.52-.98,1.14-1.1.55-.03,1.05-.18,1.37-.69.3-.41.35-.85.16-1.32-.18-.49-.36-.98-.54-1.46-.03-.32.02-.61.18-.89.32-.38.77-.49,1.24-.54.35.04.69.08,1.04.12.28.09.56.12.85.13,1.25.18,2.51.16,3.76.24.21.06.42.08.63.08.4.1.81.17,1.23.11.59,0,1.04-.26,1.35-.77.26-.4.53-.81.79-1.21.06-.06.11-.11.17-.17.36-.24.75-.42,1.18-.52.6-.15,1.22-.22,1.81-.42.51-.1,1.01-.26,1.5-.43.5-.16,1-.32,1.5-.48,1.03-.28,2.06-.54,3.1-.74.55-.06,1.1-.11,1.65-.17.15,0,.29-.02.44-.03.45.02.89.04,1.34.06.39.06.78.11,1.17.17.27.06.53.12.8.18.42.14.84.28,1.26.42.32.14.65.27.97.41.25.12.49.24.74.36.24.13.47.27.71.41-1.54,16.99-15.82,30.29-33.21,30.29Z"/>
      </g>
      <path class="cls-11" d="m160.31,36.66c0,2.7-1.62,4.24-4.47,4.24h-9.7v13.57c0,3.54-1.85,5.47-5.39,5.47s-5.39-1.93-5.39-5.47v-13.57h-9.7c-2.85,0-4.47-1.54-4.47-4.24s1.62-4.24,4.47-4.24h9.7v-11.95c0-3.54,1.93-5.55,5.39-5.55s5.39,2,5.39,5.55v11.95h9.7c2.85,0,4.47,1.54,4.47,4.24Z"/>
    </g>
  </g>
</svg>