<?xml version="1.0" encoding="UTF-8"?>
<svg id="Layer_2" data-name="Layer 2" xmlns="http://www.w3.org/2000/svg" viewBox="0 0 705.07 70">
  <defs>
    <style>
      .cls-1 {
        fill: #004494;
      }

      .cls-2 {
        fill: #ffd617;
      }

      .cls-3 {
        isolation: isolate;
      }
    </style>
  </defs>
  <g id="Layer_2-2" data-name="Layer 2">
    <g id="Layer_1-2" data-name="Layer 1-2">
      <g>
        <g class="cls-3">
          <path class="cls-1" d="m114.2,11.6v46.2c0,3.5-1.9,5.3-5.3,5.3s-5.3-1.9-5.3-5.3V16.8l-12,10.3c-2.3,2-4.6,1.7-6.5-.5-1.8-2.2-1.7-4.5.6-6.5l15.4-13.2c1.9-1.5,3.6-2.1,5.9-2.1h.5c4.3,0,6.7,2.5,6.7,6.8Z"/>
        </g>
        <g class="cls-3">
          <path class="cls-1" d="m225.5,11.7v46.1c0,3.5-1.8,5.3-5.2,5.3s-5.2-1.9-5.2-5.3l.4-37.2-14.1,23.4c-1.3,2.2-2.6,3.2-4.2,3.2s-3.1-1-4.3-3.2l-14.1-23.3.3,37.2c.1,3.5-1.7,5.3-5.1,5.3s-5.2-1.9-5.2-5.3V11.7c0-4.4,2.4-6.8,6.8-6.8h.6c2.8,0,4.9,1.4,6.5,4l14.5,24.3,14.4-24.4c1.5-2.7,3.7-4,6.5-4h.6c4.3,0,6.8,2.5,6.8,6.9Z"/>
          <path class="cls-1" d="m280.7,33.4v7.6c0,13.2-9.4,22.1-23.6,22.1s-23.7-8.9-23.7-22.4v-13.6c0-13.6,9.6-22.6,24-22.6,8.1,0,16,3.5,19.5,9.9,1,1.8.8,5.3-2.4,6.6-3,1.1-5.1-.1-6.2-1.3-3.2-4.1-7.3-5.8-10.9-5.8-8.1,0-13.5,5.5-13.5,13.9v12.5c0,8.2,5.3,13.7,13.2,13.7s13.1-5.3,13.1-13.4v-2.8h-9.9c-3,0-4.6-1.6-4.6-4.5s1.7-4.5,4.6-4.5h15.7c3,0,4.7,1.6,4.7,4.6Z"/>
        </g>
        <g class="cls-3">
          <path class="cls-1" d="m324.1,14.2v14.6h22.8c3,0,4.6,1.6,4.6,4.5s-1.7,4.5-4.6,4.5h-22.8v19.9c0,3.5-1.9,5.3-5.3,5.3s-5.3-1.9-5.3-5.3V9.9c0-3,1.7-4.7,4.7-4.7h30.1c3,0,4.6,1.6,4.6,4.5s-1.7,4.5-4.6,4.5c0,0-24.2,0-24.2,0Z"/>
        </g>
        <g class="cls-3">
          <path class="cls-1" d="m381.8,25.8c0,3-1.9,3.8-5.5,4.5-4.8.7-8.1,3.7-8.1,9.2v18.4c0,3.3-1.7,5.2-5,5.2s-5-1.9-5-5.2v-31.8c0-3.3,1.7-5.2,4.7-5.2s4.6,1.7,4.8,5c2.2-3.2,5.5-5,9.3-5,3,0,4.8,1.6,4.8,4.9Z"/>
        </g>
        <g class="cls-3">
          <path class="cls-1" d="m419.4,35.1v22.8c0,3.3-1.6,5.2-4.5,5.2s-4.7-1.9-4.9-5.1v-.4c-3,3.5-7.6,5.6-13.2,5.6-7.8,0-13.1-4.6-13.1-11.7v-2.4c0-6.6,5.3-10.9,13.4-10.9h12.3v-2.4c0-4.3-3.1-7.2-7.6-7.2-2.8,0-5.3,1-7.6,3.5-.9.9-2.3,1.7-4.6,1-3.5-1.1-4.3-3.9-3.2-5.7,2.5-4.4,8.9-6.6,15.5-6.6,10.3.1,17.5,5.7,17.5,14.3Zm-10.1,12.1v-2h-10c-3.3,0-5.6,1.7-5.6,4.4v.8c0,3,2.4,4.8,6.1,4.8,5.6-.1,9.5-3.2,9.5-8Z"/>
          <path class="cls-1" d="m488.2,36v21.9c0,3.3-1.7,5.2-5,5.2s-5-1.9-5-5.2v-20.3c0-4.8-3.1-8-7.7-8s-7.7,3.2-7.7,8v20.3c0,3.3-1.7,5.2-5,5.2s-5-1.9-5-5.2v-20.3c0-4.8-3.1-8-7.7-8s-7.7,3.2-7.7,8v20.3c0,3.3-1.7,5.2-5,5.2s-5-1.9-5-5.2v-31.8c0-3.3,1.7-5.2,4.7-5.2s4.6,1.8,4.8,5c2.6-3.2,6.6-5.1,11.4-5.1,5.5,0,9.8,2.3,12.3,6.3,2.8-4,7.4-6.3,13.2-6.3,8.6.1,14.4,6.1,14.4,15.2Z"/>
        </g>
        <g class="cls-3">
          <path class="cls-1" d="m531.5,38.4v2.6c0,2.7-1.5,4.2-4.2,4.2h-23v.7c0,5.8,3.5,9.6,8.8,9.6,3,0,5.9-1.2,8.3-3.9.9-.9,2.3-1.7,4.6-1.1,3.5,1.1,4.3,4,3.2,5.8-2.6,4.5-9.1,6.9-16.1,6.9-11.3,0-18.9-7-18.9-17.5v-7.3c0-10.5,7.4-17.5,18.6-17.5,11.2,0,18.7,7,18.7,17.5Zm-10.1-.2c0-5.8-3.5-9.6-8.6-9.6s-8.5,3.8-8.5,9.6v.1l17.1-.1h0Z"/>
          <path class="cls-1" d="m594.1,27.3l-7.7,28.7c-.9,3.6-3,6.8-7.8,6.8h-.5c-4.8,0-7-3.2-7.8-6.8l-5.7-23.4-5.8,23.4c-.8,3.6-3,6.8-7.8,6.8h-.5c-4.9,0-6.9-3.2-7.8-6.8l-7.7-28.7c-.8-3.2.6-5.5,3.7-6.1,3.1-.7,5.3.6,6,4l6.5,27.2,5.9-24.6c.8-3.5,2.6-6.6,7.2-6.6h.6c4.7,0,6.4,3,7.2,6.6l6,24.6,6.5-27.2c.6-3.3,2.9-4.7,6-4,3,.6,4.3,2.8,3.5,6.1Z"/>
        </g>
        <g class="cls-3">
          <path class="cls-1" d="m597.7,45.4v-6.8c0-10.7,7.6-17.7,19.1-17.7s19,7.1,19,17.7v6.8c0,10.7-7.6,17.7-19,17.7s-19.1-7-19.1-17.7Zm28-.3v-6.3c0-5.5-3.5-9.3-8.9-9.3s-9,3.7-9,9.3v6.3c0,5.5,3.6,9.2,9,9.2s8.9-3.6,8.9-9.2Z"/>
          <path class="cls-1" d="m666,25.8c0,3-1.9,3.8-5.5,4.5-4.8.7-8.1,3.7-8.1,9.2v18.4c0,3.3-1.7,5.2-5,5.2s-5-1.9-5-5.2v-31.8c0-3.3,1.7-5.2,4.7-5.2s4.6,1.7,4.8,5c2.2-3.2,5.5-5,9.3-5,3.1,0,4.8,1.6,4.8,4.9Z"/>
          <path class="cls-1" d="m702.2,62.3c-2.9,1.4-5.3.6-6.7-2.4l-8-16.5-6.8,7.6v6.9c0,3.3-1.7,5.2-5,5.2s-5-1.9-5-5.2V9.7c0-3.3,1.8-5.2,5-5.2s5,1.9,5,5.2v30l15.5-16.9c2.1-2.2,4.3-2.4,6.5-.4s2.3,4.3.3,6.6l-7.8,8.4,9.1,18.1c1.5,3,.8,5.5-2.1,6.8Z"/>
        </g>
        <g id="_3" data-name=" 3">
          <path class="cls-1" d="m35,0C15.7,0,0,15.7,0,35s15.7,35,35,35,35-15.7,35-35S54.3,0,35,0Zm29.6,19.7c-.5.3-.9.8-1.3,1.4-.6.9-.9,1.9-1.3,2.9-.4.6-.7,1.2-1.1,1.9-.4.5-.9,1-1.4,1.5-.5.2-1,.4-1.5.2-.5-.3-1-.6-1.6-.9-.5-.7-1.2-.9-2-.8-.5.1-1,0-1.4,0-.2-.1-.3-.2-.5-.3-.1-.2-.2-.5-.5-.6-.2-.1-.4.2-.6.3-.4.2-.7.2-1.1-.1-.5-.3-1-.6-1.5-1-.6-.4-.8-.4-1.3.2-.6.7-1.3,1.2-2.3.8-.4-.5-.9-1.1-1.3-1.7-.6-1-1.2-2.1-1.9-3.1-.2-.3-.3-.6-.6-.8-.4-.6-1-.9-1.7-1.1-.8-.3-1.5-.3-2.3-.3-.5-.2-1-.4-1.5-.6-1.3-.8-2.6-1.6-3.7-2.7-.5-.5-.9-1.1-1.4-1.6-.8-1.2-1.5-2.6-2.1-3.9,0-.1,0-.2-.1-.3-.2-1-.5-1.9-.8-2.9v-.2c-.1-.8-.1-1.5-.2-2.3.1-.3.1-.7,0-1,0-.1,0-.2.1-.2,2.3-.5,4.7-.8,7.1-.8,13-.1,24.2,7.3,29.8,18h0ZM11.6,11.2c.4.2.9.4,1.3.6,2.5,1.2,4.4,2.9,5.8,5.2.1.2.2.4.3.5.3,1.1.9,2,1.2,3.1.8,2.3,1.3,4.6,1.1,7.1,0,.6-.1,1.2-.3,1.8l-.3.6c-.1.2-.3.4-.4.6-.3.4-.3.9-.1,1.4.5,1,.9,2.1,1.4,3.1.4.8.7,1.7,1,2.5.1.4.1.7-.2,1-.4.4-.8.7-1.3.9-.1,0-.2.1-.3.1-.9.3-.9.5-.8,1.4,0,.4.1.7.1,1.1s-.2.7-.6.8c-.3.1-.4.2-.4.5v.2c.1.6-.2,1-.7,1.3-.4.2-.6.5-.6.9v1.1c.1.7-.2,1.3-.5,1.8-.2.4-.7.5-1.1.6-.8.1-1.5,0-2.2-.2-1.2-.4-2.4-.7-3.7-.8-1.9-.2-3.8,0-5.5.7-2-4.3-3.2-9.2-3.2-14.2,0-9.2,3.8-17.7,10-23.7h0Zm23.3,57.1c-2.6,0-5.2-.3-7.6-.9l.1-.1c.4-.4.8-.7,1.1-1.2.4-.4.7-.8.8-1.3q0-.1.1-.2c.2-.6.5-1.1.9-1.6.4-.4.9-.5,1.3-.8,1.3-.3,2-1.2,1.9-2.5,0-.8-.3-1.5-.8-2.2-.1-.1-.2-.3-.2-.4-.8-1.2-1.7-2.2-2-3.7-.1-.7-.1-1.3.2-1.9h0c.3-.4.7-.8,1.3-.8h1.3c.6-.1,1-.5,1.1-1.1,0-.3.1-.5,0-.8,0-.4.1-.9.3-1.3.2-.1.3-.3.5-.4.2-.1.4-.2.6-.3.5.1.7,0,.7-.4v-.2c.1-.6.5-1,1.1-1.1.5,0,1-.2,1.4-.7.3-.4.3-.8.2-1.3-.2-.5-.4-1-.5-1.5,0-.3,0-.6.2-.9.3-.4.8-.5,1.2-.5.3,0,.7.1,1,.1.3.1.6.1.8.1,1.2.2,2.5.2,3.8.2.2.1.4.1.6.1.4.1.8.2,1.2.1.6,0,1-.3,1.3-.8.3-.4.5-.8.8-1.2l.2-.2c.4-.2.8-.4,1.2-.5.6-.2,1.2-.2,1.8-.4.5-.1,1-.3,1.5-.4.5-.2,1-.3,1.5-.5,1-.3,2.1-.5,3.1-.7.5-.1,1.1-.1,1.7-.2h.4c.5,0,.9,0,1.3.1.4.1.8.1,1.2.2.3.1.5.1.8.2.4.1.8.3,1.3.4.3.1.7.3,1,.4.2.1.5.2.7.4.2.1.5.3.7.4-1.4,17.1-15.7,30.4-33.1,30.3h0Z"/>
        </g>
        <path class="cls-2" d="m160.3,34.5c0,2.7-1.6,4.2-4.5,4.2h-9.7v13.6c0,3.5-1.9,5.5-5.4,5.5s-5.4-1.9-5.4-5.5v-13.6h-9.7c-2.8,0-4.5-1.5-4.5-4.2s1.6-4.2,4.5-4.2h9.7v-12c0-3.5,1.9-5.6,5.4-5.6s5.4,2,5.4,5.6v12h9.7c2.9-.1,4.5,1.5,4.5,4.2Z"/>
      </g>
    </g>
  </g>
</svg>