<?xml version="1.0" encoding="UTF-8" standalone="no"?>
<!-- Created with Inkscape (http://www.inkscape.org/) -->

<svg
   width="364.77045mm"
   height="362.54532mm"
   viewBox="0 0 364.77045 362.54532"
   version="1.1"
   id="svg216"
   xmlns:inkscape="http://www.inkscape.org/namespaces/inkscape"
   xmlns:sodipodi="http://sodipodi.sourceforge.net/DTD/sodipodi-0.dtd"
   xmlns="http://www.w3.org/2000/svg"
   xmlns:svg="http://www.w3.org/2000/svg">
  <sodipodi:namedview
     id="namedview218"
     pagecolor="#ffffff"
     bordercolor="#000000"
     borderopacity="0.25"
     inkscape:showpageshadow="2"
     inkscape:pageopacity="0.0"
     inkscape:pagecheckerboard="0"
     inkscape:deskcolor="#d1d1d1"
     inkscape:document-units="mm"
     showgrid="false" />
  <defs
     id="defs213" />
  <g
     inkscape:label="Layer 1"
     inkscape:groupmode="layer"
     id="layer1"
     style="display:inline"
     transform="translate(-344.91562,198.8913)">
    <g
       id="winner"
       transform="matrix(0.26458333,0,0,0.26458333,344.91562,-198.8913)">
      <path
         class="cls-1"
         d="M 708.66,14.57 C 328,14.57 19.34,321.31 19.34,699.69 c 0,378.38 308.66,685.13 689.32,685.13 380.66,0 689.34,-306.74 689.34,-685.13 C 1398,321.3 1089.36,14.57 708.66,14.57 Z m 0,11.47 c 261.07,0 487.45,148.51 599.28,365.65 -15.27,5.89 -25.09,17.95 -33.4,31.19 -11.34,18 -17.85,38.36 -25.85,58 a 5,5 0 0 1 -0.28,0.57 q -10.68,18.31 -21.35,36.63 a 5.28,5.28 0 0 1 -0.37,0.55 241.84,241.84 0 0 1 -27,28.28 4.57,4.57 0 0 1 -1.53,0.91 c -9.41,3.31 -18.82,6.67 -29,4.06 a 4.83,4.83 0 0 1 -1.17,-0.49 l -29.76,-17.49 a 4.61,4.61 0 0 1 -1.27,-1.14 c -10.14,-13.46 -24.06,-18 -40.37,-15.87 -8.94,1.14 -17.73,0.15 -26.57,-0.35 l -12.26,-8.4 c -1.76,-4 -3.71,-8 -8,-9.26 -5.08,-1.53 -8.23,3.76 -12.3,5.93 -7.39,3.94 -14.57,3.78 -21.89,-1.22 -9.86,-6.73 -20.12,-12.92 -30.42,-19 -13.25,-7.81 -16.24,-7.12 -26.89,5 -12,13.72 -25.55,22.75 -44.43,15.3 A 4.52,4.52 0 0 1 912,503.52 l -25.18,-31.83 a 5,5 0 0 1 -0.33,-0.47 c -12.3,-20.59 -24.47,-41.25 -37,-61.7 -3.47,-5.67 -6,-12.21 -12,-16 a 4.61,4.61 0 0 1 -1.4,-1.38 c -7.6,-11.8 -19.55,-17.16 -32.33,-21.29 -11.94,-4.2 -24.38,-5 -36.8,-5.91 a 53.47,53.47 0 0 1 -17.23,-4.29 l -20.82,-9.08 a 6,6 0 0 1 -0.56,-0.3 C 703.29,335.76 678.26,320.18 656.26,300.34 L 620.4,257.29 c -13.66,-21.56 -24.75,-44.48 -34.89,-67.91 a 4.23,4.23 0 0 1 -0.24,-0.71 q -0.66,-2.66 -1.31,-5.31 Q 576.5,154.64 569,126 c -0.27,-1.55 -0.53,-3.09 -0.8,-4.64 q -1.83,-22.22 -3.67,-44.41 l 1.91,-35.84 A 676.25,676.25 0 0 1 708.66,26 Z M 234.12,221.56 a 4.32,4.32 0 0 0 1.9,1.56 q 16.29,6.87 32.39,14.42 c 49.32,23 87.3,58 116.69,103.1 a 123,123 0 0 1 5.9,10.83 c 15.35,29.76 17,40.27 24.17,60.91 15.86,45.44 25.77,91.8 22.69,140.29 a 206.44,206.44 0 0 1 -5.63,36.05 c -1.11,4.55 -3.63,8.29 -6.18,12 -2.9,4.27 -6,8.42 -8.83,12.72 -5.82,8.73 -6.87,18 -2.6,27.66 l 27,61.25 c 7.24,16.45 14.52,32.87 20.8,49.73 2.87,7.68 1.2,13.59 -4.21,19.12 a 83.67,83.67 0 0 1 -26.36,18.17 c -2.08,0.91 -4.22,1.69 -6.34,2.49 -17,6.43 -18.7,9.24 -16.17,27.18 1,7.35 2.5,14.68 1.83,22.17 -0.75,8.33 -4.27,14.66 -12.94,16.9 -5.31,1.37 -7.45,4.73 -7,10 0.15,1.64 0.09,3.32 0.36,4.94 2.11,12.63 -4.1,20.93 -14.82,25.65 -8.51,3.76 -11.39,9.85 -11.83,18.4 a 142.09,142.09 0 0 0 0.4,21.64 C 366.69,952.27 362,964.07 355,975 c -5,7.82 -13.19,11 -22,12.49 -15,2.51 -29.81,0.72 -44.09,-3.65 -24.12,-7.38 -48.24,-14.42 -73.5,-16.74 -40.38,-3.71 -79.11,0.33 -115.08,16.51 -0.47,1.27 -0.83,2.22 -1.2,3.19 A 671,671 0 0 1 35,699.69 C 35,512.76 111.15,343.61 234.12,221.56 Z m 474.54,1151.79 a 675,675 0 0 1 -164.17,-20.16 c 4.36,-4 8.56,-8.22 12.68,-12.5 a 1.54,1.54 0 0 1 0.19,-0.17 188.68,188.68 0 0 0 21.6,-22.73 l 0.16,-0.18 c 6.7,-7.41 13.25,-14.93 16.2,-24.71 0.57,-1.5 1.49,-4 2.06,-5.44 4.73,-10.81 9.42,-21.64 16.75,-31 a 4.5,4.5 0 0 1 0.55,-0.6 c 7.41,-6.91 16.78,-10.48 25.61,-15 a 4.49,4.49 0 0 1 0.77,-0.29 c 26,-7.11 39.09,-24.3 37.66,-50 -0.9,-16 -6.62,-30.47 -15.23,-43.87 -1.51,-2.62 -2.92,-5.3 -4.56,-7.84 -15,-23.06 -33,-44.45 -39.37,-72.17 0,-0.15 -0.06,-0.29 -0.08,-0.44 -2,-12.92 -1.15,-25.51 4.67,-37.47 a 0.71,0.71 0 0 0 0.59,-0.83 c 5.86,-8 13.16,-13.73 22.71,-16 l 10.82,-0.65 a 78,78 0 0 0 19.49,-0.56 c 11.86,-1.94 19.58,-9.55 21.55,-21.33 a 41.91,41.91 0 0 0 0.25,-15.23 4.55,4.55 0 0 1 -0.07,-1.17 c 0.77,-10.14 1.65,-20.25 9.74,-28.48 l 7.81,-5.31 9,-4 a 4.42,4.42 0 0 1 2.73,-0.28 c 12.41,2.74 12.64,2.44 12,-7.65 l 0.36,-5.31 c 2.56,-11.87 10.37,-18.31 22.13,-20.67 a 3.94,3.94 0 0 1 0.6,-0.08 c 11,-0.7 20.81,-3.56 27,-13.74 6.06,-8.12 7,-16.86 3.14,-26.17 q -5.28,-14.22 -10.55,-28.45 a 4.44,4.44 0 0 1 -0.27,-1.21 29.17,29.17 0 0 1 3.33,-16.59 5.1,5.1 0 0 1 0.63,-0.89 c 5.89,-6.63 13.65,-9 22,-10.1 l 23,2.13 a 59.72,59.72 0 0 0 16.9,2.56 h 0.42 c 24.69,3.45 49.62,3.21 74.44,4.67 a 4.4,4.4 0 0 1 0.94,0.16 37.54,37.54 0 0 0 11.6,1.38 4.67,4.67 0 0 1 1.05,0.1 c 7.85,1.82 15.74,3.13 23.85,2 a 2.43,2.43 0 0 1 0.38,0 c 13.51,-0.19 23.28,-7 29.43,-20.13 l 13.22,-19.25 3,-3 a 4.62,4.62 0 0 1 0.78,-0.62 75.17,75.17 0 0 1 23.1,-10 c 12,-2.86 24.27,-4.36 36,-8.35 a 3.45,3.45 0 0 1 0.43,-0.12 240.53,240.53 0 0 0 29.78,-8.58 l 30,-9.49 c 19.86,-5.43 39.82,-10.42 60.06,-14.24 l 38.83,-4.15 7.21,-0.21 24.76,1.32 19.68,2.74 19.68,4.47 22.36,7.2 18.37,7.41 17.94,8.8 0.24,0.12 q 11.48,6.46 22.67,13.36 c -32.55,341.7 -320.35,608.99 -670.6,608.99 z"
         transform="translate(-19.34,-14.57)"
         id="path6"
         style="fill:#004494" />
      <g
         id="B1MG">
        <path
           id="_1"
           data-name="1"
           class="cls-2"
           d="M 557.6,571.93 V 727 c 0,11.61 -6.29,17.89 -17.66,17.89 -11.61,0 -17.65,-6.28 -17.65,-17.89 V 589.34 l -40.63,34.83 c -7.74,6.77 -15.48,5.81 -21.77,-1.69 -6.05,-7.5 -5.56,-15 2.18,-21.77 l 51.75,-44.5 c 6,-5.08 11.61,-7 19.35,-7 h 1.69 c 14.51,-0.01 22.74,8.21 22.74,22.72 z"
           transform="translate(-19.34,-14.57)"
           style="fill:#ffffff" />
        <path
           id="M"
           class="cls-2"
           d="M 927.42,572.17 V 727 c 0,11.61 -6,17.89 -17.41,17.89 -11.41,0 -17.42,-6.28 -17.42,-17.89 l 1.21,-125 -47.4,78.6 c -4.35,7.26 -8.71,10.64 -14.27,10.64 -5.56,0 -10.4,-3.38 -14.51,-10.64 l -47.4,-78.36 1,124.8 c 0.24,11.61 -5.81,17.89 -17.18,17.89 -11.12,0 -17.41,-6.28 -17.41,-17.89 V 572.17 c 0,-14.75 8.22,-23 23,-23 h 1.93 c 9.43,0 16.45,4.59 21.77,13.54 l 48.85,81.75 48.61,-81.75 c 5.08,-9 12.34,-13.54 21.77,-13.54 h 1.94 c 14.7,0.03 22.92,8.25 22.92,23 z"
           transform="translate(-19.34,-14.57)"
           style="fill:#ffffff" />
        <path
           id="G"
           class="cls-2"
           d="m 1099.1,645.7 v 25.48 c 0,44.24 -31.49,73.8 -78.85,73.8 -47.36,0 -79.08,-29.8 -79.08,-74.76 v -45.67 c 0,-45.43 32,-75.48 80,-75.48 27.17,0 53.37,11.54 65.15,32.93 3.37,6 2.64,17.79 -8.17,21.88 -9.86,3.6 -17.07,-0.24 -20.68,-4.33 -10.57,-13.7 -24.52,-19.47 -36.3,-19.47 -26.92,0 -45,18.51 -45,46.39 v 41.83 c 0,27.4 17.79,45.67 44,45.67 27.41,0 43.75,-17.78 43.75,-44.71 v -8.89 h -33.17 c -9.86,0 -15.38,-5.29 -15.38,-15.15 0,-9.61 5.52,-14.9 15.38,-14.9 h 52.65 c 10.17,0 15.7,5.53 15.7,15.38 z"
           transform="translate(-19.34,-14.57)"
           style="fill:#ffffff" />
      </g>
      <path
         class="cls-3"
         d="m 711.45,644.44 c 0,9 -5.43,14.21 -15,14.21 H 663.9 v 45.52 c 0,11.89 -6.2,18.35 -18.09,18.35 -11.62,0 -18.08,-6.46 -18.08,-18.35 v -45.52 h -32.56 c -9.56,0 -15,-5.17 -15,-14.21 0,-9.04 5.43,-14.22 15,-14.22 h 32.56 v -40.08 c 0,-11.88 6.46,-18.6 18.08,-18.6 11.62,0 18.09,6.72 18.09,18.6 v 40.08 h 32.56 c 9.54,0 14.99,5.17 14.99,14.22 z"
         transform="translate(-19.34,-14.57)"
         id="path12"
         style="fill:#ffd617" />
    </g>
  </g>
</svg>
