<?xml version="1.0" encoding="utf-8"?>
<!-- Generator: Adobe Illustrator 27.2.0, SVG Export Plug-In . SVG Version: 6.00 Build 0)  -->
<svg version="1.1" id="Layer_2_00000145060562674190375930000005697921398929451162_"
	 xmlns="http://www.w3.org/2000/svg" xmlns:xlink="http://www.w3.org/1999/xlink" x="0px" y="0px" viewBox="0 0 886.8 82.8"
	 style="enable-background:new 0 0 886.8 82.8;" xml:space="preserve">
<style type="text/css">
	.st0{enable-background:new    ;}
	.st1{fill:#004494;}
	.st2{fill:#FFD617;}
</style>
<g id="Layer_1-2">
	<g>
		<g class="st0">
			<path class="st1" d="M114.2,13.8v46.2c0,3.5-1.9,5.3-5.3,5.3c-3.5,0-5.3-1.9-5.3-5.3V19L91.6,29.3c-2.3,2-4.6,1.7-6.5-0.5
				c-1.8-2.2-1.7-4.5,0.6-6.5l15.4-13.2C103,7.6,104.7,7,107,7h0.5C111.8,7,114.2,9.5,114.2,13.8z"/>
		</g>
		<g class="st0">
			<path class="st1" d="M225.5,13.9v46.1c0,3.5-1.8,5.3-5.2,5.3c-3.4,0-5.2-1.9-5.2-5.3l0.4-37.2l-14.1,23.4
				c-1.3,2.2-2.6,3.2-4.2,3.2s-3.1-1-4.3-3.2l-14.1-23.3l0.3,37.2c0.1,3.5-1.7,5.3-5.1,5.3c-3.3,0-5.2-1.9-5.2-5.3V13.9
				c0-4.4,2.4-6.8,6.8-6.8h0.6c2.8,0,4.9,1.4,6.5,4l14.5,24.3L211.6,11c1.5-2.7,3.7-4,6.5-4h0.6C223,7,225.5,9.5,225.5,13.9z"/>
			<path class="st1" d="M280.7,35.6v7.6c0,13.2-9.4,22.1-23.6,22.1c-14.2,0-23.7-8.9-23.7-22.4V29.3c0-13.6,9.6-22.6,24-22.6
				c8.1,0,16,3.5,19.5,9.9c1,1.8,0.8,5.3-2.4,6.6c-3,1.1-5.1-0.1-6.2-1.3c-3.2-4.1-7.3-5.8-10.9-5.8c-8.1,0-13.5,5.5-13.5,13.9v12.5
				c0,8.2,5.3,13.7,13.2,13.7c8.2,0,13.1-5.3,13.1-13.4V40h-9.9c-3,0-4.6-1.6-4.6-4.5c0-2.9,1.7-4.5,4.6-4.5H276
				C279,31,280.7,32.6,280.7,35.6z"/>
		</g>
		<g class="st0">
			<path class="st1" d="M341.2,11.9c0,3-1.7,4.5-4.7,4.5h-12.1v43.5c0,3.5-1.9,5.3-5.3,5.3c-3.4,0-5.3-1.9-5.3-5.3V16.4h-12
				c-3,0-4.7-1.6-4.7-4.5c0-3,1.7-4.5,4.7-4.5h34.6C339.5,7.4,341.2,9,341.2,11.9z"/>
		</g>
		<g class="st0">
			<path class="st1" d="M363.6,28c0,3-1.9,3.8-5.5,4.5c-4.8,0.7-8.1,3.7-8.1,9.2v18.4c0,3.3-1.7,5.2-5,5.2c-3.2,0-5-1.9-5-5.2V28.3
				c0-3.3,1.7-5.2,4.7-5.2c3,0,4.6,1.7,4.8,5c2.2-3.2,5.5-5,9.3-5C361.9,23.1,363.6,24.7,363.6,28z"/>
			<path class="st1" d="M403.5,28.3v31.8c0,3.3-1.6,5.2-4.5,5.2c-3,0-4.7-1.8-4.9-5c-2.7,3.2-6.6,5.1-11.4,5.1
				c-8.8,0-14.7-6-14.7-15.1V28.3c0-3.3,1.8-5.2,5-5.2s5,1.9,5,5.2v20.3c0,4.8,3.1,7.9,7.7,7.9s7.7-3.1,7.7-7.9V28.3
				c0-3.3,1.8-5.2,5-5.2S403.5,25,403.5,28.3z"/>
		</g>
		<g class="st0">
			<path class="st1" d="M410.1,58.4c-1.1-1.8-0.1-4.7,3.5-5.8c2.3-0.6,3.6,0.2,4.6,1.1c2.4,2.5,5.6,3.6,8.6,3.6
				c4.7,0,7.8-1.9,7.8-4.6v-0.2c0-8.9-24.8,0.3-24.8-16.3v-0.7c0-8,6.8-12.4,17-12.4c6.5,0,12.8,2.2,15.3,6.6
				c1.2,1.8,0.4,4.7-3.2,5.7c-2.3,0.7-3.7-0.1-4.6-1c-2.3-2.7-4.9-3.7-7.7-3.7c-4.3,0-7.1,1.8-7.1,4.5v0.1c0,8.7,25.1-0.4,25.1,16.3
				v0.8c0,8.4-7.2,13.1-18,13.1C420,65.3,412.8,62.9,410.1,58.4z"/>
		</g>
		<g class="st0">
			<path class="st1" d="M472.4,60.7c0,2.5-1.4,4-4.1,4h-2.7c-7.6,0-12.5-4.4-12.5-11V31.7h-2.5c-2.7,0-4.2-1.4-4.2-4s1.5-4,4.2-4
				h2.7v-6.3c0-3.3,1.7-5.2,4.9-5.2c3.2,0,5,1.9,5,5.2v6.3h5.9c2.7,0,4.1,1.4,4.1,4s-1.4,4-4.1,4h-5.9V53c0,2.2,1.4,3.7,3.5,3.7h1.7
				C470.9,56.7,472.4,58.1,472.4,60.7z"/>
		</g>
		<g class="st0">
			<path class="st1" d="M504.1,16.4V31h22.8c3,0,4.6,1.6,4.6,4.5c0,3-1.7,4.5-4.6,4.5h-22.8v19.9c0,3.5-1.9,5.3-5.3,5.3
				c-3.4,0-5.3-1.9-5.3-5.3V12.1c0-3,1.7-4.7,4.7-4.7h30.1c3,0,4.6,1.6,4.6,4.5c0,3-1.7,4.5-4.6,4.5H504.1z"/>
		</g>
		<g class="st0">
			<path class="st1" d="M561.8,28c0,3-1.9,3.8-5.5,4.5c-4.8,0.7-8.1,3.7-8.1,9.2v18.4c0,3.3-1.7,5.2-5,5.2c-3.2,0-5-1.9-5-5.2V28.3
				c0-3.3,1.7-5.2,4.7-5.2c3,0,4.6,1.7,4.8,5c2.2-3.2,5.5-5,9.3-5C560,23.1,561.8,24.7,561.8,28z"/>
		</g>
		<g class="st0">
			<path class="st1" d="M599.4,37.3v22.8c0,3.3-1.6,5.2-4.5,5.2c-3,0-4.7-1.9-4.9-5.1v-0.4c-3,3.5-7.6,5.6-13.2,5.6
				c-7.8,0-13.1-4.6-13.1-11.7v-2.4c0-6.6,5.3-10.9,13.4-10.9h12.3V38c0-4.3-3.1-7.2-7.6-7.2c-2.8,0-5.3,1-7.6,3.5
				c-0.9,0.9-2.3,1.7-4.6,1c-3.5-1.1-4.3-3.9-3.2-5.7c2.5-4.4,8.9-6.6,15.5-6.6C592.2,23.1,599.4,28.7,599.4,37.3z M589.3,49.4v-2
				h-10c-3.3,0-5.6,1.7-5.6,4.4v0.8c0,3,2.4,4.8,6.1,4.8C585.4,57.3,589.3,54.2,589.3,49.4z"/>
			<path class="st1" d="M668.2,38.2v21.9c0,3.3-1.7,5.2-5,5.2c-3.2,0-5-1.9-5-5.2V39.8c0-4.8-3.1-8-7.7-8c-4.5,0-7.7,3.2-7.7,8v20.3
				c0,3.3-1.7,5.2-5,5.2c-3.2,0-5-1.9-5-5.2V39.8c0-4.8-3.1-8-7.7-8c-4.5,0-7.7,3.2-7.7,8v20.3c0,3.3-1.7,5.2-5,5.2
				c-3.2,0-5-1.9-5-5.2V28.3c0-3.3,1.7-5.2,4.7-5.2c3,0,4.6,1.8,4.8,5c2.6-3.2,6.6-5.1,11.4-5.1c5.5,0,9.8,2.3,12.3,6.3
				c2.8-4,7.4-6.3,13.2-6.3C662.4,23.1,668.2,29.1,668.2,38.2z"/>
		</g>
		<g class="st0">
			<path class="st1" d="M711.5,40.6v2.6c0,2.7-1.5,4.2-4.2,4.2h-23v0.7c0,5.8,3.5,9.6,8.8,9.6c3,0,5.9-1.2,8.3-3.9
				c0.9-0.9,2.3-1.7,4.6-1.1c3.5,1.1,4.3,4,3.2,5.8c-2.6,4.5-9.1,6.9-16.1,6.9c-11.3,0-18.9-7-18.9-17.5v-7.3
				c0-10.5,7.4-17.5,18.6-17.5C704,23.1,711.5,30.1,711.5,40.6z M701.4,40.4c0-5.8-3.5-9.6-8.6-9.6c-5.1,0-8.5,3.8-8.5,9.6v0.1
				L701.4,40.4L701.4,40.4z"/>
			<path class="st1" d="M774.1,29.5l-7.7,28.7c-0.9,3.6-3,6.8-7.8,6.8h-0.5c-4.8,0-7-3.2-7.8-6.8l-5.7-23.4l-5.8,23.4
				c-0.8,3.6-3,6.8-7.8,6.8h-0.5c-4.9,0-6.9-3.2-7.8-6.8l-7.7-28.7c-0.8-3.2,0.6-5.5,3.7-6.1c3.1-0.7,5.3,0.6,6,4l6.5,27.2l5.9-24.6
				c0.8-3.5,2.6-6.6,7.2-6.6h0.6c4.7,0,6.4,3,7.2,6.6l6,24.6l6.5-27.2c0.6-3.3,2.9-4.7,6-4C773.6,24,774.9,26.2,774.1,29.5z"/>
		</g>
		<g class="st0">
			<path class="st1" d="M777.7,47.6v-6.8c0-10.7,7.6-17.7,19.1-17.7c11.4,0,19,7.1,19,17.7v6.8c0,10.7-7.6,17.7-19,17.7
				C785.3,65.3,777.7,58.3,777.7,47.6z M805.7,47.3v-6.3c0-5.5-3.5-9.3-8.9-9.3s-9,3.7-9,9.3v6.3c0,5.5,3.6,9.2,9,9.2
				S805.7,52.9,805.7,47.3z"/>
			<path class="st1" d="M846,28c0,3-1.9,3.8-5.5,4.5c-4.8,0.7-8.1,3.7-8.1,9.2v18.4c0,3.3-1.7,5.2-5,5.2c-3.2,0-5-1.9-5-5.2V28.3
				c0-3.3,1.7-5.2,4.7-5.2c3,0,4.6,1.7,4.8,5c2.2-3.2,5.5-5,9.3-5C844.3,23.1,846,24.7,846,28z"/>
			<path class="st1" d="M882.2,64.5c-2.9,1.4-5.3,0.6-6.7-2.4l-8-16.5l-6.8,7.6v6.9c0,3.3-1.7,5.2-5,5.2c-3.2,0-5-1.9-5-5.2V11.9
				c0-3.3,1.8-5.2,5-5.2c3.3,0,5,1.9,5,5.2v30L876.2,25c2.1-2.2,4.3-2.4,6.5-0.4c2.2,2,2.3,4.3,0.3,6.6l-7.8,8.4l9.1,18.1
				C885.8,60.7,885.1,63.2,882.2,64.5z"/>
		</g>
		<g id="_3">
			<path class="st1" d="M35,2.2c-19.3,0-35,15.7-35,35s15.7,35,35,35s35-15.7,35-35S54.3,2.2,35,2.2z M64.6,21.9
				c-0.5,0.3-0.9,0.8-1.3,1.4c-0.6,0.9-0.9,1.9-1.3,2.9c-0.4,0.6-0.7,1.2-1.1,1.9c-0.4,0.5-0.9,1-1.4,1.5c-0.5,0.2-1,0.4-1.5,0.2
				c-0.5-0.3-1-0.6-1.6-0.9c-0.5-0.7-1.2-0.9-2-0.8c-0.5,0.1-1,0-1.4,0c-0.2-0.1-0.3-0.2-0.5-0.3c-0.1-0.2-0.2-0.5-0.5-0.6
				c-0.2-0.1-0.4,0.2-0.6,0.3c-0.4,0.2-0.7,0.2-1.1-0.1c-0.5-0.3-1-0.6-1.5-1C48.2,26,48,26,47.5,26.6c-0.6,0.7-1.3,1.2-2.3,0.8
				c-0.4-0.5-0.9-1.1-1.3-1.7c-0.6-1-1.2-2.1-1.9-3.1c-0.2-0.3-0.3-0.6-0.6-0.8c-0.4-0.6-1-0.9-1.7-1.1c-0.8-0.3-1.5-0.3-2.3-0.3
				c-0.5-0.2-1-0.4-1.5-0.6c-1.3-0.8-2.6-1.6-3.7-2.7c-0.5-0.5-0.9-1.1-1.4-1.6c-0.8-1.2-1.5-2.6-2.1-3.9c0-0.1,0-0.2-0.1-0.3
				c-0.2-1-0.5-1.9-0.8-2.9c0-0.1,0-0.1,0-0.2c-0.1-0.8-0.1-1.5-0.2-2.3c0.1-0.3,0.1-0.7,0-1c0-0.1,0-0.2,0.1-0.2
				c2.3-0.5,4.7-0.8,7.1-0.8C47.8,3.8,59,11.2,64.6,21.9L64.6,21.9z M11.6,13.4c0.4,0.2,0.9,0.4,1.3,0.6c2.5,1.2,4.4,2.9,5.8,5.2
				c0.1,0.2,0.2,0.4,0.3,0.5c0.3,1.1,0.9,2,1.2,3.1c0.8,2.3,1.3,4.6,1.1,7.1c0,0.6-0.1,1.2-0.3,1.8c-0.1,0.2-0.2,0.4-0.3,0.6
				c-0.1,0.2-0.3,0.4-0.4,0.6c-0.3,0.4-0.3,0.9-0.1,1.4c0.5,1,0.9,2.1,1.4,3.1c0.4,0.8,0.7,1.7,1,2.5c0.1,0.4,0.1,0.7-0.2,1
				c-0.4,0.4-0.8,0.7-1.3,0.9c-0.1,0-0.2,0.1-0.3,0.1c-0.9,0.3-0.9,0.5-0.8,1.4c0,0.4,0.1,0.7,0.1,1.1c0,0.4-0.2,0.7-0.6,0.8
				c-0.3,0.1-0.4,0.2-0.4,0.5c0,0.1,0,0.2,0,0.2c0.1,0.6-0.2,1-0.7,1.3c-0.4,0.2-0.6,0.5-0.6,0.9c0,0.4,0,0.7,0,1.1
				c0.1,0.7-0.2,1.3-0.5,1.8c-0.2,0.4-0.7,0.5-1.1,0.6c-0.8,0.1-1.5,0-2.2-0.2c-1.2-0.4-2.4-0.7-3.7-0.8c-1.9-0.2-3.8,0-5.5,0.7
				c-2-4.3-3.2-9.2-3.2-14.2C1.6,27.9,5.4,19.4,11.6,13.4L11.6,13.4z M34.9,70.5c-2.6,0-5.2-0.3-7.6-0.9c0,0,0.1-0.1,0.1-0.1
				c0.4-0.4,0.8-0.7,1.1-1.2c0.4-0.4,0.7-0.8,0.8-1.3c0-0.1,0-0.1,0.1-0.2c0.2-0.6,0.5-1.1,0.9-1.6c0.4-0.4,0.9-0.5,1.3-0.8
				c1.3-0.3,2-1.2,1.9-2.5c0-0.8-0.3-1.5-0.8-2.2c-0.1-0.1-0.2-0.3-0.2-0.4c-0.8-1.2-1.7-2.2-2-3.7c-0.1-0.7-0.1-1.3,0.2-1.9
				c0,0,0,0,0,0c0.3-0.4,0.7-0.8,1.3-0.8c0.1,0,0.2,0,0.2,0c0.4,0,0.8,0,1.1,0c0.6-0.1,1-0.5,1.1-1.1c0-0.3,0.1-0.5,0-0.8
				c0-0.4,0.1-0.9,0.3-1.3c0.2-0.1,0.3-0.3,0.5-0.4c0.2-0.1,0.4-0.2,0.6-0.3c0.5,0.1,0.7,0,0.7-0.4c0-0.1,0-0.1,0-0.2
				c0.1-0.6,0.5-1,1.1-1.1c0.5,0,1-0.2,1.4-0.7c0.3-0.4,0.3-0.8,0.2-1.3c-0.2-0.5-0.4-1-0.5-1.5c0-0.3,0-0.6,0.2-0.9
				c0.3-0.4,0.8-0.5,1.2-0.5c0.3,0,0.7,0.1,1,0.1c0.3,0.1,0.6,0.1,0.8,0.1c1.2,0.2,2.5,0.2,3.8,0.2c0.2,0.1,0.4,0.1,0.6,0.1
				c0.4,0.1,0.8,0.2,1.2,0.1c0.6,0,1-0.3,1.3-0.8c0.3-0.4,0.5-0.8,0.8-1.2c0.1-0.1,0.1-0.1,0.2-0.2c0.4-0.2,0.8-0.4,1.2-0.5
				c0.6-0.2,1.2-0.2,1.8-0.4c0.5-0.1,1-0.3,1.5-0.4c0.5-0.2,1-0.3,1.5-0.5c1-0.3,2.1-0.5,3.1-0.7c0.5-0.1,1.1-0.1,1.7-0.2
				c0.2,0,0.3,0,0.4,0c0.5,0,0.9,0,1.3,0.1c0.4,0.1,0.8,0.1,1.2,0.2c0.3,0.1,0.5,0.1,0.8,0.2c0.4,0.1,0.8,0.3,1.3,0.4
				c0.3,0.1,0.7,0.3,1,0.4c0.2,0.1,0.5,0.2,0.7,0.4c0.2,0.1,0.5,0.3,0.7,0.4C66.6,57.3,52.3,70.6,34.9,70.5L34.9,70.5z"/>
		</g>
		<path class="st2" d="M160.3,36.7c0,2.7-1.6,4.2-4.5,4.2h-9.7v13.6c0,3.5-1.9,5.5-5.4,5.5s-5.4-1.9-5.4-5.5V40.9h-9.7
			c-2.8,0-4.5-1.5-4.5-4.2s1.6-4.2,4.5-4.2h9.7v-12c0-3.5,1.9-5.6,5.4-5.6s5.4,2,5.4,5.6v12h9.7C158.7,32.4,160.3,34,160.3,36.7z"/>
	</g>
</g>
</svg>
