<?xml version="1.0" encoding="utf-8"?>
<!-- Generator: Adobe Illustrator 27.2.0, SVG Export Plug-In . SVG Version: 6.00 Build 0)  -->
<svg version="1.1" id="Layer_2_00000077295661754254673600000001971133638865390744_"
	 xmlns="http://www.w3.org/2000/svg" xmlns:xlink="http://www.w3.org/1999/xlink" x="0px" y="0px" viewBox="0 0 705.1 70"
	 style="enable-background:new 0 0 705.1 70;" xml:space="preserve">
<style type="text/css">
	.st0{fill:#004494;}
	.st1{fill:#FFD617;}
</style>
<g id="Layer_2-2">
	<g id="Layer_1-2">
		<g>
			<g>
				<path class="st0" d="M114.2,11.6v46.2c0,3.5-1.9,5.3-5.3,5.3s-5.3-1.9-5.3-5.3v-41l-12,10.3c-2.3,2-4.6,1.7-6.5-0.5
					c-1.8-2.2-1.7-4.5,0.6-6.5l15.4-13.2c1.9-1.5,3.6-2.1,5.9-2.1h0.5C111.8,4.8,114.2,7.3,114.2,11.6z"/>
			</g>
			<g>
				<path class="st0" d="M225.5,11.7v46.1c0,3.5-1.8,5.3-5.2,5.3s-5.2-1.9-5.2-5.3l0.4-37.2L201.4,44c-1.3,2.2-2.6,3.2-4.2,3.2
					s-3.1-1-4.3-3.2l-14.1-23.3l0.3,37.2c0.1,3.5-1.7,5.3-5.1,5.3s-5.2-1.9-5.2-5.3V11.7c0-4.4,2.4-6.8,6.8-6.8h0.6
					c2.8,0,4.9,1.4,6.5,4l14.5,24.3l14.4-24.4c1.5-2.7,3.7-4,6.5-4h0.6C223,4.8,225.5,7.3,225.5,11.7z"/>
				<path class="st0" d="M280.7,33.4V41c0,13.2-9.4,22.1-23.6,22.1s-23.7-8.9-23.7-22.4V27.1c0-13.6,9.6-22.6,24-22.6
					c8.1,0,16,3.5,19.5,9.9c1,1.8,0.8,5.3-2.4,6.6c-3,1.1-5.1-0.1-6.2-1.3c-3.2-4.1-7.3-5.8-10.9-5.8c-8.1,0-13.5,5.5-13.5,13.9
					v12.5c0,8.2,5.3,13.7,13.2,13.7c7.9,0,13.1-5.3,13.1-13.4v-2.8h-9.9c-3,0-4.6-1.6-4.6-4.5s1.7-4.5,4.6-4.5H276
					C279,28.8,280.7,30.4,280.7,33.4L280.7,33.4z"/>
			</g>
			<g>
				<path class="st0" d="M324.1,14.2v14.6h22.8c3,0,4.6,1.6,4.6,4.5s-1.7,4.5-4.6,4.5h-22.8v19.9c0,3.5-1.9,5.3-5.3,5.3
					s-5.3-1.9-5.3-5.3V9.9c0-3,1.7-4.7,4.7-4.7h30.1c3,0,4.6,1.6,4.6,4.5s-1.7,4.5-4.6,4.5H324.1L324.1,14.2z"/>
			</g>
			<g>
				<path class="st0" d="M381.8,25.8c0,3-1.9,3.8-5.5,4.5c-4.8,0.7-8.1,3.7-8.1,9.2v18.4c0,3.3-1.7,5.2-5,5.2s-5-1.9-5-5.2V26.1
					c0-3.3,1.7-5.2,4.7-5.2s4.6,1.7,4.8,5c2.2-3.2,5.5-5,9.3-5C380,20.9,381.8,22.5,381.8,25.8L381.8,25.8z"/>
			</g>
			<g>
				<path class="st0" d="M419.4,35.1v22.8c0,3.3-1.6,5.2-4.5,5.2s-4.7-1.9-4.9-5.1v-0.4c-3,3.5-7.6,5.6-13.2,5.6
					c-7.8,0-13.1-4.6-13.1-11.7v-2.4c0-6.6,5.3-10.9,13.4-10.9h12.3v-2.4c0-4.3-3.1-7.2-7.6-7.2c-2.8,0-5.3,1-7.6,3.5
					c-0.9,0.9-2.3,1.7-4.6,1c-3.5-1.1-4.3-3.9-3.2-5.7c2.5-4.4,8.9-6.6,15.5-6.6C412.2,20.9,419.4,26.5,419.4,35.1L419.4,35.1z
					 M409.3,47.2v-2h-10c-3.3,0-5.6,1.7-5.6,4.4v0.8c0,3,2.4,4.8,6.1,4.8C405.4,55.1,409.3,52,409.3,47.2z"/>
				<path class="st0" d="M488.2,36v21.9c0,3.3-1.7,5.2-5,5.2s-5-1.9-5-5.2V37.6c0-4.8-3.1-8-7.7-8s-7.7,3.2-7.7,8v20.3
					c0,3.3-1.7,5.2-5,5.2s-5-1.9-5-5.2V37.6c0-4.8-3.1-8-7.7-8s-7.7,3.2-7.7,8v20.3c0,3.3-1.7,5.2-5,5.2s-5-1.9-5-5.2V26.1
					c0-3.3,1.7-5.2,4.7-5.2s4.6,1.8,4.8,5c2.6-3.2,6.6-5.1,11.4-5.1c5.5,0,9.8,2.3,12.3,6.3c2.8-4,7.4-6.3,13.2-6.3
					C482.4,20.9,488.2,26.9,488.2,36L488.2,36z"/>
			</g>
			<g>
				<path class="st0" d="M531.5,38.4V41c0,2.7-1.5,4.2-4.2,4.2h-23v0.7c0,5.8,3.5,9.6,8.8,9.6c3,0,5.9-1.2,8.3-3.9
					c0.9-0.9,2.3-1.7,4.6-1.1c3.5,1.1,4.3,4,3.2,5.8c-2.6,4.5-9.1,6.9-16.1,6.9c-11.3,0-18.9-7-18.9-17.5v-7.3
					c0-10.5,7.4-17.5,18.6-17.5S531.5,27.9,531.5,38.4z M521.4,38.2c0-5.8-3.5-9.6-8.6-9.6s-8.5,3.8-8.5,9.6v0.1L521.4,38.2
					L521.4,38.2z"/>
				<path class="st0" d="M594.1,27.3L586.4,56c-0.9,3.6-3,6.8-7.8,6.8h-0.5c-4.8,0-7-3.2-7.8-6.8l-5.7-23.4L558.8,56
					c-0.8,3.6-3,6.8-7.8,6.8h-0.5c-4.9,0-6.9-3.2-7.8-6.8L535,27.3c-0.8-3.2,0.6-5.5,3.7-6.1c3.1-0.7,5.3,0.6,6,4l6.5,27.2l5.9-24.6
					c0.8-3.5,2.6-6.6,7.2-6.6h0.6c4.7,0,6.4,3,7.2,6.6l6,24.6l6.5-27.2c0.6-3.3,2.9-4.7,6-4C593.6,21.8,594.9,24,594.1,27.3
					L594.1,27.3z"/>
			</g>
			<g>
				<path class="st0" d="M597.7,45.4v-6.8c0-10.7,7.6-17.7,19.1-17.7s19,7.1,19,17.7v6.8c0,10.7-7.6,17.7-19,17.7
					S597.7,56.1,597.7,45.4z M625.7,45.1v-6.3c0-5.5-3.5-9.3-8.9-9.3s-9,3.7-9,9.3v6.3c0,5.5,3.6,9.2,9,9.2S625.7,50.7,625.7,45.1z"
					/>
				<path class="st0" d="M666,25.8c0,3-1.9,3.8-5.5,4.5c-4.8,0.7-8.1,3.7-8.1,9.2v18.4c0,3.3-1.7,5.2-5,5.2s-5-1.9-5-5.2V26.1
					c0-3.3,1.7-5.2,4.7-5.2s4.6,1.7,4.8,5c2.2-3.2,5.5-5,9.3-5C664.3,20.9,666,22.5,666,25.8z"/>
				<path class="st0" d="M702.2,62.3c-2.9,1.4-5.3,0.6-6.7-2.4l-8-16.5l-6.8,7.6v6.9c0,3.3-1.7,5.2-5,5.2s-5-1.9-5-5.2V9.7
					c0-3.3,1.8-5.2,5-5.2s5,1.9,5,5.2v30l15.5-16.9c2.1-2.2,4.3-2.4,6.5-0.4s2.3,4.3,0.3,6.6l-7.8,8.4l9.1,18.1
					C705.8,58.5,705.1,61,702.2,62.3z"/>
			</g>
			<g id="_3">
				<path class="st0" d="M35,0C15.7,0,0,15.7,0,35s15.7,35,35,35s35-15.7,35-35S54.3,0,35,0z M64.6,19.7c-0.5,0.3-0.9,0.8-1.3,1.4
					C62.7,22,62.4,23,62,24c-0.4,0.6-0.7,1.2-1.1,1.9c-0.4,0.5-0.9,1-1.4,1.5c-0.5,0.2-1,0.4-1.5,0.2c-0.5-0.3-1-0.6-1.6-0.9
					c-0.5-0.7-1.2-0.9-2-0.8c-0.5,0.1-1,0-1.4,0c-0.2-0.1-0.3-0.2-0.5-0.3c-0.1-0.2-0.2-0.5-0.5-0.6c-0.2-0.1-0.4,0.2-0.6,0.3
					c-0.4,0.2-0.7,0.2-1.1-0.1c-0.5-0.3-1-0.6-1.5-1c-0.6-0.4-0.8-0.4-1.3,0.2c-0.6,0.7-1.3,1.2-2.3,0.8c-0.4-0.5-0.9-1.1-1.3-1.7
					c-0.6-1-1.2-2.1-1.9-3.1c-0.2-0.3-0.3-0.6-0.6-0.8c-0.4-0.6-1-0.9-1.7-1.1c-0.8-0.3-1.5-0.3-2.3-0.3c-0.5-0.2-1-0.4-1.5-0.6
					c-1.3-0.8-2.6-1.6-3.7-2.7c-0.5-0.5-0.9-1.1-1.4-1.6c-0.8-1.2-1.5-2.6-2.1-3.9c0-0.1,0-0.2-0.1-0.3c-0.2-1-0.5-1.9-0.8-2.9V6
					c-0.1-0.8-0.1-1.5-0.2-2.3c0.1-0.3,0.1-0.7,0-1c0-0.1,0-0.2,0.1-0.2C30,2,32.4,1.7,34.8,1.7C47.8,1.6,59,9,64.6,19.7
					C64.6,19.7,64.6,19.7,64.6,19.7z M11.6,11.2c0.4,0.2,0.9,0.4,1.3,0.6c2.5,1.2,4.4,2.9,5.8,5.2c0.1,0.2,0.2,0.4,0.3,0.5
					c0.3,1.1,0.9,2,1.2,3.1c0.8,2.3,1.3,4.6,1.1,7.1c0,0.6-0.1,1.2-0.3,1.8l-0.3,0.6c-0.1,0.2-0.3,0.4-0.4,0.6
					c-0.3,0.4-0.3,0.9-0.1,1.4c0.5,1,0.9,2.1,1.4,3.1c0.4,0.8,0.7,1.7,1,2.5c0.1,0.4,0.1,0.7-0.2,1c-0.4,0.4-0.8,0.7-1.3,0.9
					c-0.1,0-0.2,0.1-0.3,0.1c-0.9,0.3-0.9,0.5-0.8,1.4c0,0.4,0.1,0.7,0.1,1.1s-0.2,0.7-0.6,0.8c-0.3,0.1-0.4,0.2-0.4,0.5v0.2
					c0.1,0.6-0.2,1-0.7,1.3c-0.4,0.2-0.6,0.5-0.6,0.9V47c0.1,0.7-0.2,1.3-0.5,1.8c-0.2,0.4-0.7,0.5-1.1,0.6c-0.8,0.1-1.5,0-2.2-0.2
					c-1.2-0.4-2.4-0.7-3.7-0.8c-1.9-0.2-3.8,0-5.5,0.7c-2-4.3-3.2-9.2-3.2-14.2C1.6,25.7,5.4,17.2,11.6,11.2
					C11.6,11.2,11.6,11.2,11.6,11.2z M34.9,68.3c-2.6,0-5.2-0.3-7.6-0.9l0.1-0.1c0.4-0.4,0.8-0.7,1.1-1.2c0.4-0.4,0.7-0.8,0.8-1.3
					c0-0.1,0-0.1,0.1-0.2c0.2-0.6,0.5-1.1,0.9-1.6c0.4-0.4,0.9-0.5,1.3-0.8c1.3-0.3,2-1.2,1.9-2.5c0-0.8-0.3-1.5-0.8-2.2
					c-0.1-0.1-0.2-0.3-0.2-0.4c-0.8-1.2-1.7-2.2-2-3.7c-0.1-0.7-0.1-1.3,0.2-1.9l0,0c0.3-0.4,0.7-0.8,1.3-0.8h1.3
					c0.6-0.1,1-0.5,1.1-1.1c0-0.3,0.1-0.5,0-0.8c0-0.4,0.1-0.9,0.3-1.3c0.2-0.1,0.3-0.3,0.5-0.4c0.2-0.1,0.4-0.2,0.6-0.3
					c0.5,0.1,0.7,0,0.7-0.4v-0.2c0.1-0.6,0.5-1,1.1-1.1c0.5,0,1-0.2,1.4-0.7c0.3-0.4,0.3-0.8,0.2-1.3c-0.2-0.5-0.4-1-0.5-1.5
					c0-0.3,0-0.6,0.2-0.9c0.3-0.4,0.8-0.5,1.2-0.5c0.3,0,0.7,0.1,1,0.1c0.3,0.1,0.6,0.1,0.8,0.1c1.2,0.2,2.5,0.2,3.8,0.2
					c0.2,0.1,0.4,0.1,0.6,0.1c0.4,0.1,0.8,0.2,1.2,0.1c0.6,0,1-0.3,1.3-0.8c0.3-0.4,0.5-0.8,0.8-1.2l0.2-0.2
					c0.4-0.2,0.8-0.4,1.2-0.5c0.6-0.2,1.2-0.2,1.8-0.4c0.5-0.1,1-0.3,1.5-0.4c0.5-0.2,1-0.3,1.5-0.5c1-0.3,2.1-0.5,3.1-0.7
					c0.5-0.1,1.1-0.1,1.7-0.2H61c0.5,0,0.9,0,1.3,0.1c0.4,0.1,0.8,0.1,1.2,0.2c0.3,0.1,0.5,0.1,0.8,0.2c0.4,0.1,0.8,0.3,1.3,0.4
					c0.3,0.1,0.7,0.3,1,0.4c0.2,0.1,0.5,0.2,0.7,0.4c0.2,0.1,0.5,0.3,0.7,0.4C66.6,55.1,52.3,68.4,34.9,68.3
					C34.9,68.3,34.9,68.3,34.9,68.3z"/>
			</g>
			<path class="st1" d="M160.3,34.5c0,2.7-1.6,4.2-4.5,4.2h-9.7v13.6c0,3.5-1.9,5.5-5.4,5.5s-5.4-1.9-5.4-5.5V38.7h-9.7
				c-2.8,0-4.5-1.5-4.5-4.2s1.6-4.2,4.5-4.2h9.7v-12c0-3.5,1.9-5.6,5.4-5.6s5.4,2,5.4,5.6v12h9.7C158.7,30.2,160.3,31.8,160.3,34.5z
				"/>
		</g>
	</g>
</g>
</svg>
